<svg width="44" height="44" viewBox="0 0 44 44" fill="none" xmlns="http://www.w3.org/2000/svg">
<path d="M40.0057 19.3438H37.938C37.8202 18.9174 37.5668 18.541 37.2162 18.2714C36.8655 18.0018 36.4365 17.8538 35.9942 17.8496H33.7871V12.4521C33.7895 12.3511 33.7651 12.2513 33.7163 12.1629C33.6675 12.0745 33.5961 12.0006 33.5093 11.9489L17.939 2.95568C17.8512 2.90468 17.7515 2.87781 17.65 2.87781C17.5485 2.87781 17.4488 2.90468 17.3611 2.95568L1.78588 11.9489C1.69775 12 1.62465 12.0734 1.57393 12.1618C1.52322 12.2501 1.49669 12.3502 1.49701 12.4521V30.4387C1.49701 30.5407 1.52386 30.6409 1.57486 30.7292C1.62586 30.8175 1.69921 30.8909 1.78754 30.9419L17.3643 39.9351C17.4526 39.9861 17.5528 40.0129 17.6548 40.0129C17.7594 40.013 17.8623 39.9862 17.9536 39.9351L26.1503 35.2072V38.625C26.1495 38.9504 26.2132 39.2727 26.3378 39.5733C26.4623 39.8739 26.6453 40.1468 26.8761 40.3763C27.1068 40.6057 27.3808 40.7871 27.6821 40.9099C27.9834 41.0327 28.3061 41.0945 28.6315 41.0918H40.0057C40.3319 41.0948 40.6555 41.0333 40.9579 40.9108C41.2602 40.7883 41.5354 40.6072 41.7675 40.3779C41.9996 40.1486 42.184 39.8757 42.3102 39.5749C42.4364 39.274 42.5019 38.9512 42.5029 38.625V21.8491C42.5025 21.1862 42.2395 20.5504 41.7715 20.0809C41.3035 19.6113 40.6686 19.3463 40.0057 19.3438ZM36.0149 19.0117C36.2386 19.0117 36.4531 19.1006 36.6113 19.2588C36.7695 19.4169 36.8583 19.6315 36.8583 19.8552V19.9114C36.8583 20.1351 36.7695 20.3497 36.6113 20.5078C36.4531 20.666 36.2386 20.7549 36.0149 20.7549H32.6383C32.4146 20.7549 32.2001 20.666 32.0419 20.5078C31.8837 20.3497 31.7949 20.1351 31.7949 19.9114V19.8552C31.7949 19.6315 31.8837 19.4169 32.0419 19.2588C32.2001 19.1006 32.4146 19.0117 32.6383 19.0117H36.0149ZM17.6548 4.12983L24.1273 7.86668L9.71362 16.1884L3.24126 12.4515L17.6548 4.12983ZM17.1025 38.4254L2.65912 30.1031V13.4573L17.1025 21.7795V38.4254ZM17.6548 20.7731L10.8757 16.8592L25.2894 8.53763L32.0688 12.4515L17.6548 20.7731ZM26.1503 21.8491V33.8654L18.2646 38.4254V21.7795L32.6249 13.4573V17.8496H32.643C32.2006 17.8538 31.7717 18.0018 31.421 18.2714C31.0703 18.541 30.8169 18.9174 30.6992 19.3438H28.6315C27.9703 19.347 27.3374 19.6127 26.8721 20.0826C26.4067 20.5524 26.1471 21.1878 26.1503 21.8491ZM41.3408 38.625C41.34 38.7987 41.3047 38.9705 41.2369 39.1304C41.1692 39.2903 41.0703 39.4352 40.9461 39.5566C40.8219 39.6779 40.6748 39.7734 40.5133 39.8375C40.3519 39.9016 40.1793 39.9329 40.0057 39.9297H28.6315C28.4587 39.9326 28.2871 39.901 28.1266 39.8366C27.9662 39.7722 27.8203 39.6765 27.6974 39.5549C27.5745 39.4334 27.4772 39.2885 27.4111 39.1288C27.345 38.9691 27.3114 38.7978 27.3124 38.625V21.8491C27.3107 21.6742 27.3434 21.5008 27.4088 21.3386C27.4742 21.1764 27.5709 21.0287 27.6934 20.9039C27.8159 20.7792 27.9619 20.6798 28.1228 20.6115C28.2838 20.5432 28.4567 20.5073 28.6315 20.5059H30.7218C30.8464 20.9172 31.101 21.277 31.4474 21.5314C31.7937 21.7858 32.2132 21.9211 32.643 21.917H35.9942C36.424 21.9211 36.8434 21.7858 37.1898 21.5314C37.5361 21.277 37.7907 20.9172 37.9153 20.5059H40.0057C40.3605 20.5081 40.7 20.6506 40.9501 20.9022C41.2003 21.1539 41.3407 21.4943 41.3408 21.8491V38.625Z" fill="url(#paint0_linear)"/>
<path d="M40.0057 19.3438H37.938C37.8202 18.9174 37.5668 18.541 37.2162 18.2714C36.8655 18.0018 36.4365 17.8538 35.9942 17.8496H33.7871V12.4521C33.7895 12.3511 33.7651 12.2513 33.7163 12.1629C33.6675 12.0745 33.5961 12.0006 33.5093 11.9489L17.939 2.95568C17.8512 2.90468 17.7515 2.87781 17.65 2.87781C17.5485 2.87781 17.4488 2.90468 17.3611 2.95568L1.78588 11.9489C1.69775 12 1.62465 12.0734 1.57393 12.1618C1.52322 12.2501 1.49669 12.3502 1.49701 12.4521V30.4387C1.49701 30.5407 1.52386 30.6409 1.57486 30.7292C1.62586 30.8175 1.69921 30.8909 1.78754 30.9419L17.3643 39.9351C17.4526 39.9861 17.5528 40.0129 17.6548 40.0129C17.7594 40.013 17.8623 39.9862 17.9536 39.9351L26.1503 35.2072V38.625C26.1495 38.9504 26.2132 39.2727 26.3378 39.5733C26.4623 39.8739 26.6453 40.1468 26.8761 40.3763C27.1068 40.6057 27.3808 40.7871 27.6821 40.9099C27.9834 41.0327 28.3061 41.0945 28.6315 41.0918H40.0057C40.3319 41.0948 40.6555 41.0333 40.9579 40.9108C41.2602 40.7883 41.5354 40.6072 41.7675 40.3779C41.9996 40.1486 42.184 39.8757 42.3102 39.5749C42.4364 39.274 42.5019 38.9512 42.5029 38.625V21.8491C42.5025 21.1862 42.2395 20.5504 41.7715 20.0809C41.3035 19.6113 40.6686 19.3463 40.0057 19.3438ZM36.0149 19.0117C36.2386 19.0117 36.4531 19.1006 36.6113 19.2588C36.7695 19.4169 36.8583 19.6315 36.8583 19.8552V19.9114C36.8583 20.1351 36.7695 20.3497 36.6113 20.5078C36.4531 20.666 36.2386 20.7549 36.0149 20.7549H32.6383C32.4146 20.7549 32.2001 20.666 32.0419 20.5078C31.8837 20.3497 31.7949 20.1351 31.7949 19.9114V19.8552C31.7949 19.6315 31.8837 19.4169 32.0419 19.2588C32.2001 19.1006 32.4146 19.0117 32.6383 19.0117H36.0149ZM17.6548 4.12983L24.1273 7.86668L9.71362 16.1884L3.24126 12.4515L17.6548 4.12983ZM17.1025 38.4254L2.65912 30.1031V13.4573L17.1025 21.7795V38.4254ZM17.6548 20.7731L10.8757 16.8592L25.2894 8.53763L32.0688 12.4515L17.6548 20.7731ZM26.1503 21.8491V33.8654L18.2646 38.4254V21.7795L32.6249 13.4573V17.8496H32.643C32.2006 17.8538 31.7717 18.0018 31.421 18.2714C31.0703 18.541 30.8169 18.9174 30.6992 19.3438H28.6315C27.9703 19.347 27.3374 19.6127 26.8721 20.0826C26.4067 20.5524 26.1471 21.1878 26.1503 21.8491ZM41.3408 38.625C41.34 38.7987 41.3047 38.9705 41.2369 39.1304C41.1692 39.2903 41.0703 39.4352 40.9461 39.5566C40.8219 39.6779 40.6748 39.7734 40.5133 39.8375C40.3519 39.9016 40.1793 39.9329 40.0057 39.9297H28.6315C28.4587 39.9326 28.2871 39.901 28.1266 39.8366C27.9662 39.7722 27.8203 39.6765 27.6974 39.5549C27.5745 39.4334 27.4772 39.2885 27.4111 39.1288C27.345 38.9691 27.3114 38.7978 27.3124 38.625V21.8491C27.3107 21.6742 27.3434 21.5008 27.4088 21.3386C27.4742 21.1764 27.5709 21.0287 27.6934 20.9039C27.8159 20.7792 27.9619 20.6798 28.1228 20.6115C28.2838 20.5432 28.4567 20.5073 28.6315 20.5059H30.7218C30.8464 20.9172 31.101 21.277 31.4474 21.5314C31.7937 21.7858 32.2132 21.9211 32.643 21.917H35.9942C36.424 21.9211 36.8434 21.7858 37.1898 21.5314C37.5361 21.277 37.7907 20.9172 37.9153 20.5059H40.0057C40.3605 20.5081 40.7 20.6506 40.9501 20.9022C41.2003 21.1539 41.3407 21.4943 41.3408 21.8491V38.625Z" fill="white"/>
<path d="M29.3005 27.7275H29.9087C30.0628 27.7275 30.2106 27.6663 30.3195 27.5574C30.4285 27.4484 30.4897 27.3006 30.4897 27.1465C30.4897 26.9924 30.4285 26.8446 30.3195 26.7356C30.2106 26.6266 30.0628 26.5654 29.9087 26.5654H29.8858V24.9883H31.4884C31.5249 25.1051 31.5986 25.2068 31.6984 25.2776C31.7982 25.3485 31.9185 25.3847 32.0408 25.3807C32.1951 25.3811 32.3433 25.3203 32.4528 25.2116C32.5623 25.1029 32.6242 24.9552 32.625 24.8009V24.41C32.6237 24.2549 32.5613 24.1067 32.4513 23.9974C32.3413 23.888 32.1927 23.8265 32.0377 23.8262H29.3005C29.2242 23.8266 29.1488 23.842 29.0786 23.8715C29.0083 23.9011 28.9446 23.9442 28.891 23.9985C28.8374 24.0527 28.7951 24.1169 28.7663 24.1875C28.7376 24.2582 28.7231 24.3337 28.7236 24.41V27.1471C28.7232 27.2232 28.7378 27.2986 28.7665 27.369C28.7953 27.4394 28.8377 27.5034 28.8914 27.5573C28.945 27.6112 29.0087 27.6541 29.0789 27.6833C29.1491 27.7125 29.2244 27.7275 29.3005 27.7275Z" fill="url(#paint1_linear)"/>
<path d="M29.3005 27.7275H29.9087C30.0628 27.7275 30.2106 27.6663 30.3195 27.5574C30.4285 27.4484 30.4897 27.3006 30.4897 27.1465C30.4897 26.9924 30.4285 26.8446 30.3195 26.7356C30.2106 26.6266 30.0628 26.5654 29.9087 26.5654H29.8858V24.9883H31.4884C31.5249 25.1051 31.5986 25.2068 31.6984 25.2776C31.7982 25.3485 31.9185 25.3847 32.0408 25.3807C32.1951 25.3811 32.3433 25.3203 32.4528 25.2116C32.5623 25.1029 32.6242 24.9552 32.625 24.8009V24.41C32.6237 24.2549 32.5613 24.1067 32.4513 23.9974C32.3413 23.888 32.1927 23.8265 32.0377 23.8262H29.3005C29.2242 23.8266 29.1488 23.842 29.0786 23.8715C29.0083 23.9011 28.9446 23.9442 28.891 23.9985C28.8374 24.0527 28.7951 24.1169 28.7663 24.1875C28.7376 24.2582 28.7231 24.3337 28.7236 24.41V27.1471C28.7232 27.2232 28.7378 27.2986 28.7665 27.369C28.7953 27.4394 28.8377 27.5034 28.8914 27.5573C28.945 27.6112 29.0087 27.6541 29.0789 27.6833C29.1491 27.7125 29.2244 27.7275 29.3005 27.7275Z" fill="white"/>
<path d="M29.3047 33.04H32.0439C32.1981 33.04 32.3458 32.9788 32.4548 32.8699C32.5638 32.7609 32.625 32.6131 32.625 32.459V29.7197C32.625 29.5656 32.5638 29.4178 32.4548 29.3089C32.3458 29.1999 32.1981 29.1387 32.0439 29.1387H29.3047C29.1506 29.1387 29.0028 29.1999 28.8938 29.3089C28.7849 29.4178 28.7236 29.5656 28.7236 29.7197V32.459C28.7236 32.6131 28.7849 32.7609 28.8938 32.8699C29.0028 32.9788 29.1506 33.04 29.3047 33.04ZM29.8857 30.3008H31.4629V31.8779H29.8857V30.3008Z" fill="url(#paint2_linear)"/>
<path d="M29.3047 33.04H32.0439C32.1981 33.04 32.3458 32.9788 32.4548 32.8699C32.5638 32.7609 32.625 32.6131 32.625 32.459V29.7197C32.625 29.5656 32.5638 29.4178 32.4548 29.3089C32.3458 29.1999 32.1981 29.1387 32.0439 29.1387H29.3047C29.1506 29.1387 29.0028 29.1999 28.8938 29.3089C28.7849 29.4178 28.7236 29.5656 28.7236 29.7197V32.459C28.7236 32.6131 28.7849 32.7609 28.8938 32.8699C29.0028 32.9788 29.1506 33.04 29.3047 33.04ZM29.8857 30.3008H31.4629V31.8779H29.8857V30.3008Z" fill="white"/>
<path d="M29.9087 37.1904H29.8857V35.6133H31.457C31.46 35.7661 31.5227 35.9116 31.6318 36.0187C31.7409 36.1257 31.8876 36.1858 32.0404 36.1859C32.1932 36.1861 32.34 36.1263 32.4493 36.0195C32.5586 35.9127 32.6217 35.7672 32.625 35.6144V35.0546C32.6244 34.8975 32.5628 34.7467 32.4532 34.6342C32.3436 34.5216 32.1946 34.456 32.0376 34.4512H29.3004C29.1445 34.4564 28.9968 34.5225 28.889 34.6353C28.7812 34.748 28.7218 34.8985 28.7236 35.0546V37.7917C28.7235 37.8668 28.7385 37.941 28.7677 38.0102C28.7968 38.0793 28.8396 38.1419 28.8934 38.1942C28.9472 38.2465 29.0109 38.2874 29.0808 38.3146C29.1508 38.3418 29.2254 38.3547 29.3004 38.3525H29.9087C30.0628 38.3525 30.2106 38.2913 30.3196 38.1823C30.4285 38.0734 30.4898 37.9256 30.4898 37.7715C30.4898 37.6174 30.4285 37.4696 30.3196 37.3606C30.2106 37.2516 30.0628 37.1904 29.9087 37.1904Z" fill="url(#paint3_linear)"/>
<path d="M29.9087 37.1904H29.8857V35.6133H31.457C31.46 35.7661 31.5227 35.9116 31.6318 36.0187C31.7409 36.1257 31.8876 36.1858 32.0404 36.1859C32.1932 36.1861 32.34 36.1263 32.4493 36.0195C32.5586 35.9127 32.6217 35.7672 32.625 35.6144V35.0546C32.6244 34.8975 32.5628 34.7467 32.4532 34.6342C32.3436 34.5216 32.1946 34.456 32.0376 34.4512H29.3004C29.1445 34.4564 28.9968 34.5225 28.889 34.6353C28.7812 34.748 28.7218 34.8985 28.7236 35.0546V37.7917C28.7235 37.8668 28.7385 37.941 28.7677 38.0102C28.7968 38.0793 28.8396 38.1419 28.8934 38.1942C28.9472 38.2465 29.0109 38.2874 29.0808 38.3146C29.1508 38.3418 29.2254 38.3547 29.3004 38.3525H29.9087C30.0628 38.3525 30.2106 38.2913 30.3196 38.1823C30.4285 38.0734 30.4898 37.9256 30.4898 37.7715C30.4898 37.6174 30.4285 37.4696 30.3196 37.3606C30.2106 37.2516 30.0628 37.1904 29.9087 37.1904Z" fill="white"/>
<path d="M33.3755 24.5393L31.6738 26.241L31.1562 25.7233C31.1022 25.6693 31.0381 25.6265 30.9676 25.5973C30.8971 25.5681 30.8216 25.5531 30.7453 25.5531C30.669 25.5531 30.5934 25.5681 30.5229 25.5973C30.4524 25.6265 30.3883 25.6693 30.3344 25.7233C30.2804 25.7772 30.2376 25.8413 30.2084 25.9118C30.1792 25.9823 30.1642 26.0579 30.1642 26.1342C30.1642 26.2105 30.1792 26.286 30.2084 26.3565C30.2376 26.427 30.2804 26.4911 30.3344 26.5451L31.263 27.4736C31.3169 27.5275 31.381 27.5704 31.4515 27.5996C31.522 27.6288 31.5976 27.6438 31.6739 27.6438C31.7502 27.6438 31.8258 27.6288 31.8963 27.5996C31.9668 27.5704 32.0308 27.5275 32.0848 27.4736L34.1975 25.3609C34.3065 25.2519 34.3677 25.1041 34.3677 24.95C34.3677 24.7959 34.3065 24.6481 34.1975 24.5391C34.0885 24.4301 33.9407 24.3689 33.7866 24.3689C33.6325 24.3689 33.4847 24.4301 33.3757 24.5391L33.3755 24.5393Z" fill="url(#paint4_linear)"/>
<path d="M33.3755 24.5393L31.6738 26.241L31.1562 25.7233C31.1022 25.6693 31.0381 25.6265 30.9676 25.5973C30.8971 25.5681 30.8216 25.5531 30.7453 25.5531C30.669 25.5531 30.5934 25.5681 30.5229 25.5973C30.4524 25.6265 30.3883 25.6693 30.3344 25.7233C30.2804 25.7772 30.2376 25.8413 30.2084 25.9118C30.1792 25.9823 30.1642 26.0579 30.1642 26.1342C30.1642 26.2105 30.1792 26.286 30.2084 26.3565C30.2376 26.427 30.2804 26.4911 30.3344 26.5451L31.263 27.4736C31.3169 27.5275 31.381 27.5704 31.4515 27.5996C31.522 27.6288 31.5976 27.6438 31.6739 27.6438C31.7502 27.6438 31.8258 27.6288 31.8963 27.5996C31.9668 27.5704 32.0308 27.5275 32.0848 27.4736L34.1975 25.3609C34.3065 25.2519 34.3677 25.1041 34.3677 24.95C34.3677 24.7959 34.3065 24.6481 34.1975 24.5391C34.0885 24.4301 33.9407 24.3689 33.7866 24.3689C33.6325 24.3689 33.4847 24.4301 33.3757 24.5391L33.3755 24.5393Z" fill="white"/>
<path d="M33.3755 35.2681L31.6738 36.9698L31.1562 36.452C31.1022 36.3981 31.0381 36.3553 30.9676 36.3261C30.8971 36.2969 30.8216 36.2818 30.7453 36.2818C30.669 36.2818 30.5934 36.2969 30.5229 36.3261C30.4524 36.3553 30.3883 36.3981 30.3344 36.452C30.2804 36.506 30.2376 36.5701 30.2084 36.6406C30.1792 36.7111 30.1642 36.7866 30.1642 36.8629C30.1642 36.9392 30.1792 37.0148 30.2084 37.0853C30.2376 37.1558 30.2804 37.2199 30.3344 37.2738L31.263 38.2023C31.3169 38.2563 31.381 38.2991 31.4515 38.3283C31.522 38.3575 31.5976 38.3726 31.6739 38.3726C31.7502 38.3726 31.8258 38.3575 31.8963 38.3283C31.9668 38.2991 32.0308 38.2563 32.0848 38.2023L34.1975 36.0896C34.3065 35.9807 34.3677 35.8329 34.3677 35.6787C34.3677 35.5246 34.3065 35.3768 34.1975 35.2679C34.0885 35.1589 33.9407 35.0977 33.7866 35.0977C33.6325 35.0977 33.4847 35.1589 33.3757 35.2679L33.3755 35.2681Z" fill="url(#paint5_linear)"/>
<path d="M33.3755 35.2681L31.6738 36.9698L31.1562 36.452C31.1022 36.3981 31.0381 36.3553 30.9676 36.3261C30.8971 36.2969 30.8216 36.2818 30.7453 36.2818C30.669 36.2818 30.5934 36.2969 30.5229 36.3261C30.4524 36.3553 30.3883 36.3981 30.3344 36.452C30.2804 36.506 30.2376 36.5701 30.2084 36.6406C30.1792 36.7111 30.1642 36.7866 30.1642 36.8629C30.1642 36.9392 30.1792 37.0148 30.2084 37.0853C30.2376 37.1558 30.2804 37.2199 30.3344 37.2738L31.263 38.2023C31.3169 38.2563 31.381 38.2991 31.4515 38.3283C31.522 38.3575 31.5976 38.3726 31.6739 38.3726C31.7502 38.3726 31.8258 38.3575 31.8963 38.3283C31.9668 38.2991 32.0308 38.2563 32.0848 38.2023L34.1975 36.0896C34.3065 35.9807 34.3677 35.8329 34.3677 35.6787C34.3677 35.5246 34.3065 35.3768 34.1975 35.2679C34.0885 35.1589 33.9407 35.0977 33.7866 35.0977C33.6325 35.0977 33.4847 35.1589 33.3757 35.2679L33.3755 35.2681Z" fill="white"/>
<path d="M39.3366 25.2373H35.6871C35.533 25.2373 35.3852 25.2985 35.2762 25.4075C35.1672 25.5165 35.106 25.6643 35.106 25.8184C35.106 25.9725 35.1672 26.1203 35.2762 26.2292C35.3852 26.3382 35.533 26.3994 35.6871 26.3994H39.3366C39.4907 26.3994 39.6385 26.3382 39.7475 26.2292C39.8564 26.1203 39.9176 25.9725 39.9176 25.8184C39.9176 25.6643 39.8564 25.5165 39.7475 25.4075C39.6385 25.2985 39.4907 25.2373 39.3366 25.2373Z" fill="url(#paint6_linear)"/>
<path d="M39.3366 25.2373H35.6871C35.533 25.2373 35.3852 25.2985 35.2762 25.4075C35.1672 25.5165 35.106 25.6643 35.106 25.8184C35.106 25.9725 35.1672 26.1203 35.2762 26.2292C35.3852 26.3382 35.533 26.3994 35.6871 26.3994H39.3366C39.4907 26.3994 39.6385 26.3382 39.7475 26.2292C39.8564 26.1203 39.9176 25.9725 39.9176 25.8184C39.9176 25.6643 39.8564 25.5165 39.7475 25.4075C39.6385 25.2985 39.4907 25.2373 39.3366 25.2373Z" fill="white"/>
<path d="M39.3366 30.5498H35.6871C35.533 30.5498 35.3852 30.611 35.2762 30.72C35.1672 30.829 35.106 30.9768 35.106 31.1309C35.106 31.285 35.1672 31.4328 35.2762 31.5417C35.3852 31.6507 35.533 31.7119 35.6871 31.7119H39.3366C39.4907 31.7119 39.6385 31.6507 39.7475 31.5417C39.8564 31.4328 39.9176 31.285 39.9176 31.1309C39.9176 30.9768 39.8564 30.829 39.7475 30.72C39.6385 30.611 39.4907 30.5498 39.3366 30.5498Z" fill="url(#paint7_linear)"/>
<path d="M39.3366 30.5498H35.6871C35.533 30.5498 35.3852 30.611 35.2762 30.72C35.1672 30.829 35.106 30.9768 35.106 31.1309C35.106 31.285 35.1672 31.4328 35.2762 31.5417C35.3852 31.6507 35.533 31.7119 35.6871 31.7119H39.3366C39.4907 31.7119 39.6385 31.6507 39.7475 31.5417C39.8564 31.4328 39.9176 31.285 39.9176 31.1309C39.9176 30.9768 39.8564 30.829 39.7475 30.72C39.6385 30.611 39.4907 30.5498 39.3366 30.5498Z" fill="white"/>
<path d="M39.3366 35.8623H35.6871C35.533 35.8623 35.3852 35.9235 35.2762 36.0325C35.1672 36.1415 35.106 36.2893 35.106 36.4434C35.106 36.5975 35.1672 36.7453 35.2762 36.8542C35.3852 36.9632 35.533 37.0244 35.6871 37.0244H39.3366C39.4907 37.0244 39.6385 36.9632 39.7475 36.8542C39.8564 36.7453 39.9176 36.5975 39.9176 36.4434C39.9176 36.2893 39.8564 36.1415 39.7475 36.0325C39.6385 35.9235 39.4907 35.8623 39.3366 35.8623Z" fill="url(#paint8_linear)"/>
<path d="M39.3366 35.8623H35.6871C35.533 35.8623 35.3852 35.9235 35.2762 36.0325C35.1672 36.1415 35.106 36.2893 35.106 36.4434C35.106 36.5975 35.1672 36.7453 35.2762 36.8542C35.3852 36.9632 35.533 37.0244 35.6871 37.0244H39.3366C39.4907 37.0244 39.6385 36.9632 39.7475 36.8542C39.8564 36.7453 39.9176 36.5975 39.9176 36.4434C39.9176 36.2893 39.8564 36.1415 39.7475 36.0325C39.6385 35.9235 39.4907 35.8623 39.3366 35.8623Z" fill="white"/>
<defs>
<linearGradient id="paint0_linear" x1="54.449" y1="-12.8955" x2="49.334" y2="69.2873" gradientUnits="userSpaceOnUse">
<stop offset="0.0597382" stop-color="#6BE3DF"/>
<stop offset="1" stop-color="#FFB3EA"/>
</linearGradient>
<linearGradient id="paint1_linear" x1="33.7616" y1="22.2158" x2="33.2016" y2="30.6012" gradientUnits="userSpaceOnUse">
<stop offset="0.0597382" stop-color="#6BE3DF"/>
<stop offset="1" stop-color="#FFB3EA"/>
</linearGradient>
<linearGradient id="paint2_linear" x1="33.7616" y1="27.5283" x2="33.2015" y2="35.9137" gradientUnits="userSpaceOnUse">
<stop offset="0.0597382" stop-color="#6BE3DF"/>
<stop offset="1" stop-color="#FFB3EA"/>
</linearGradient>
<linearGradient id="paint3_linear" x1="33.7616" y1="32.8407" x2="33.2015" y2="41.2266" gradientUnits="userSpaceOnUse">
<stop offset="0.0597382" stop-color="#6BE3DF"/>
<stop offset="1" stop-color="#FFB3EA"/>
</linearGradient>
<linearGradient id="paint4_linear" x1="35.5923" y1="23.0171" x2="35.2254" y2="30.0683" gradientUnits="userSpaceOnUse">
<stop offset="0.0597382" stop-color="#6BE3DF"/>
<stop offset="1" stop-color="#FFB3EA"/>
</linearGradient>
<linearGradient id="paint5_linear" x1="35.5923" y1="33.7459" x2="35.2254" y2="40.797" gradientUnits="userSpaceOnUse">
<stop offset="0.0597382" stop-color="#6BE3DF"/>
<stop offset="1" stop-color="#FFB3EA"/>
</linearGradient>
<linearGradient id="paint6_linear" x1="41.3194" y1="24.7576" x2="41.2789" y2="27.2659" gradientUnits="userSpaceOnUse">
<stop offset="0.0597382" stop-color="#6BE3DF"/>
<stop offset="1" stop-color="#FFB3EA"/>
</linearGradient>
<linearGradient id="paint7_linear" x1="41.3194" y1="30.0701" x2="41.2789" y2="32.5784" gradientUnits="userSpaceOnUse">
<stop offset="0.0597382" stop-color="#6BE3DF"/>
<stop offset="1" stop-color="#FFB3EA"/>
</linearGradient>
<linearGradient id="paint8_linear" x1="41.3194" y1="35.3826" x2="41.2789" y2="37.8909" gradientUnits="userSpaceOnUse">
<stop offset="0.0597382" stop-color="#6BE3DF"/>
<stop offset="1" stop-color="#FFB3EA"/>
</linearGradient>
</defs>
</svg>
