<svg width="44" height="31" viewBox="0 0 44 31" fill="none" xmlns="http://www.w3.org/2000/svg">
<path d="M40.4142 14.7353L40.922 17.1313L42.0268 18.8116L43.4006 19.5585L43.2514 18.3449L43.0125 16.9447L41.2502 15.6688L40.9814 14.7977L41.4293 13.3975L40.9515 10.9703L40.8617 10.3789H39.9658L39.3683 9.56969L40.4736 8.66742L39.9359 7.5061L39.3683 7.70279V8.3254L37.6963 9.63159L36.8004 10.5962L36.1136 12.7437H35.2476L34.053 13.9261L32.8584 14.2998L31.7535 16.1979L30.5289 15.4198L29.872 15.7935L29.6929 16.229L27.3037 16.8824L27.9307 15.3263L27.3332 14.766L26.2283 14.5483L25.7804 15.2328L24.078 16.384L23.9288 16.8195L23.242 16.8507L23.2719 17.8153L22.6743 17.6287L22.4653 17.8465L22.1366 17.162L21.808 18.189L22.1366 19.5273L20.5834 20.7097L20.2846 20.5231L21.2703 19.5585L21.6584 16.7576L20.583 17.8158L20.5231 18.5627L20.4932 19.1853L19.5674 18.4072L18.9703 17.4738V18.3449L18.0745 18.1271L15.9541 17.9405L15.984 16.9447L15.566 17.8158L14.6398 17.4738L13.9529 17.9093L13.0271 17.1937L13.6541 16.229L14.0127 16.1979L14.2218 17.1313L14.7594 17.1937L15.3865 16.478L14.6098 14.7665L13.3255 15.2644L12.1009 17.0382L10.0104 17.8786L8.93504 19.4659L8.30803 21.1145L8.12894 21.5189V22.2658L8.90556 24.3509L6.75479 25.409V26.5603L8.15842 28.4895L8.54695 29.9521L8.87564 29.7655L9.23425 27.9293L10.4588 27.6492L10.4289 25.8441L11.0708 25.4393L12.7882 25.6259L13.6247 26.8083L15.2074 27.6794L15.775 26.4347L16.4618 26.3104L18.7613 26.3728L19.6273 27.4933H20.8817L21.5985 29.3295L22.7034 29.9521L23.3304 30.45L25.5705 29.7966L27.6016 30.2634L27.7507 29.0498L29.3634 29.174L31.6035 29.6408L33.4849 28.3648L34.2616 28.1475V26.5915L35.3369 25.6892L36.9201 26.6226L38.4733 27.0894L39.3393 26L39.847 27.4314L39.638 28.3025L39.847 29.5784L40.2056 29.1117L41.0716 28.4895V25.5333L39.877 23.0438L40.8327 23.2927L41.9974 25.1908H42.326V24.7869L42.9231 24.5691L41.9076 24.0712L41.1908 22.9819L39.4884 21.706L39.1597 22.6082L38.234 22.9195L37.6963 22.7953L37.6065 20.0568L39.279 18.034L39.8167 17.4114L39.0999 15.6688L39.4585 15.202L39.9364 15.2332L39.5778 14.0508L39.8765 13.9266L40.4142 14.7353ZM39.5289 13.0197L39.2301 13.144C38.7747 13.3338 38.5371 13.8569 38.6845 14.3442L38.7505 14.5625C38.7426 14.5721 38.7347 14.5822 38.7268 14.5923L38.3682 15.059C38.1521 15.34 38.1024 15.7224 38.2388 16.0534L38.7197 17.2225L38.5829 17.3812C38.5785 17.3862 38.5741 17.3917 38.5697 17.3972L36.8972 19.42C36.7437 19.6057 36.6627 19.845 36.6706 20.0903L36.7604 22.8288C36.7749 23.2735 37.0763 23.6517 37.4934 23.7485L38.0311 23.8732C38.098 23.8887 38.1662 23.8965 38.2344 23.8965C38.3316 23.8965 38.4284 23.881 38.5222 23.8493L39.1197 23.6485L39.8589 25.1885C39.7516 25.1143 39.6288 25.0624 39.4972 25.0391C39.4449 25.0299 39.3921 25.0253 39.3397 25.0253C39.0634 25.0253 38.7981 25.1528 38.6185 25.3788L38.1438 25.9757L37.2862 25.7181L35.7989 24.841C35.6551 24.7562 35.4962 24.7145 35.3378 24.7145C35.1284 24.7145 34.9202 24.7874 34.75 24.9304L33.6746 25.8331C33.4537 26.0184 33.3257 26.298 33.3257 26.5933V27.4011L33.2425 27.4245C33.1474 27.4511 33.0572 27.4933 32.975 27.5487L31.4134 28.6074L29.5482 28.2186C29.5103 28.2108 29.472 28.2053 29.4338 28.2025L27.8211 28.0783C27.7978 28.0765 27.7745 28.0755 27.7512 28.0755C27.2839 28.0755 26.883 28.4373 26.8228 28.9274L26.8038 29.0819L25.7733 28.8453C25.7069 28.8302 25.6391 28.8224 25.5714 28.8224C25.4864 28.8224 25.4011 28.8343 25.3188 28.8586L23.528 29.3813L23.2719 29.1777C23.2332 29.147 23.1922 29.1195 23.1495 29.0956L22.3404 28.6399L21.7503 27.1283C21.6069 26.7606 21.2637 26.5199 20.8826 26.5199H20.0765L19.4917 25.7635C19.3193 25.5402 19.0614 25.4077 18.7864 25.3999L16.4869 25.3375C16.479 25.3375 16.4706 25.3371 16.4627 25.3371C16.409 25.3371 16.3554 25.3421 16.3021 25.3513L15.6153 25.4755C15.3156 25.5296 15.06 25.7323 14.9297 26.0184L14.7819 26.343L14.2526 26.0518L13.5433 25.0491C13.3871 24.8282 13.1486 24.686 12.8863 24.6572L11.169 24.4706C11.1364 24.4669 11.1043 24.4655 11.0717 24.4655C10.9014 24.4655 10.7338 24.5141 10.5868 24.6063L9.94486 25.0111C9.65929 25.1908 9.48725 25.5154 9.49297 25.8629L9.50969 26.8688L9.03404 26.9775C8.81492 27.0275 8.62527 27.1563 8.49371 27.3342L7.69289 26.2334V26.0284L9.30641 25.2344C9.75082 25.0157 9.95762 24.4761 9.77986 23.9988L9.0666 22.0842V21.7335L9.15944 21.5235C9.16648 21.507 9.17352 21.4905 9.17968 21.474L9.76578 19.933L10.6128 18.6823L12.4353 17.9497C12.4463 17.9588 12.4578 17.968 12.4692 17.9772L13.395 18.6929C13.56 18.8203 13.7562 18.885 13.9533 18.885C14.1214 18.885 14.2904 18.8377 14.4404 18.7428L14.7467 18.5484L15.2527 18.7355C15.331 18.7644 15.4115 18.7818 15.4912 18.7887C15.6056 18.8565 15.7358 18.9006 15.8753 18.9125L17.928 19.0931L18.7578 19.2948C18.8282 19.3118 18.8995 19.3205 18.9708 19.3205C19.0289 19.3205 19.0865 19.315 19.1433 19.3036L19.6915 19.7643L19.6436 19.8115C19.4297 20.0211 19.3223 20.3227 19.3536 20.6272C19.3848 20.9311 19.5512 21.2026 19.8028 21.3598L20.1016 21.5464C20.2503 21.6395 20.4171 21.6853 20.5834 21.6853C20.7779 21.6853 20.9724 21.6221 21.1361 21.4973L22.6893 20.3149C22.9986 20.0793 23.139 19.6717 23.0439 19.2852L22.9053 18.7199L23.0026 18.7502C23.091 18.7777 23.1817 18.7914 23.2719 18.7914C23.476 18.7914 23.6776 18.7217 23.843 18.5888C24.0819 18.3972 24.2175 18.0978 24.2082 17.7837L24.2073 17.7516C24.4841 17.6618 24.7107 17.4412 24.811 17.1478L24.8537 17.0226L26.2903 16.0507C26.3946 15.9801 26.4844 15.8888 26.5543 15.782L26.6569 15.6252L26.784 15.6504L26.4399 16.5037C26.3018 16.8461 26.3625 17.2409 26.5961 17.5215C26.7765 17.7379 27.0362 17.8575 27.3037 17.8575C27.3829 17.8575 27.4625 17.847 27.5413 17.8254L29.9305 17.1721C30.2099 17.0955 30.4401 16.8892 30.5536 16.6128L30.565 16.5853L31.266 17.0304C31.4138 17.1244 31.5832 17.173 31.7535 17.173C31.8274 17.173 31.9022 17.1639 31.9753 17.1455C32.2168 17.0841 32.4254 16.925 32.5543 16.7035L33.4726 15.1259L34.3223 14.8605C34.4631 14.8165 34.592 14.7385 34.6985 14.6331L35.6221 13.7189H36.114C36.517 13.7189 36.8752 13.4502 37.0028 13.0513L37.6223 11.1148L38.3184 10.3651L38.6089 10.1382C38.6146 10.1469 38.6207 10.1552 38.6269 10.1634L39.2244 10.9726C39.4017 11.2129 39.6759 11.3536 39.9667 11.3536H40.0719L40.4217 13.1311C40.2628 13.0128 40.0719 12.9491 39.877 12.9491C39.7599 12.95 39.642 12.9725 39.5289 13.0197Z" fill="url(#paint0_linear)"/>
<path d="M40.4142 14.7353L40.922 17.1313L42.0268 18.8116L43.4006 19.5585L43.2514 18.3449L43.0125 16.9447L41.2502 15.6688L40.9814 14.7977L41.4293 13.3975L40.9515 10.9703L40.8617 10.3789H39.9658L39.3683 9.56969L40.4736 8.66742L39.9359 7.5061L39.3683 7.70279V8.3254L37.6963 9.63159L36.8004 10.5962L36.1136 12.7437H35.2476L34.053 13.9261L32.8584 14.2998L31.7535 16.1979L30.5289 15.4198L29.872 15.7935L29.6929 16.229L27.3037 16.8824L27.9307 15.3263L27.3332 14.766L26.2283 14.5483L25.7804 15.2328L24.078 16.384L23.9288 16.8195L23.242 16.8507L23.2719 17.8153L22.6743 17.6287L22.4653 17.8465L22.1366 17.162L21.808 18.189L22.1366 19.5273L20.5834 20.7097L20.2846 20.5231L21.2703 19.5585L21.6584 16.7576L20.583 17.8158L20.5231 18.5627L20.4932 19.1853L19.5674 18.4072L18.9703 17.4738V18.3449L18.0745 18.1271L15.9541 17.9405L15.984 16.9447L15.566 17.8158L14.6398 17.4738L13.9529 17.9093L13.0271 17.1937L13.6541 16.229L14.0127 16.1979L14.2218 17.1313L14.7594 17.1937L15.3865 16.478L14.6098 14.7665L13.3255 15.2644L12.1009 17.0382L10.0104 17.8786L8.93504 19.4659L8.30803 21.1145L8.12894 21.5189V22.2658L8.90556 24.3509L6.75479 25.409V26.5603L8.15842 28.4895L8.54695 29.9521L8.87564 29.7655L9.23425 27.9293L10.4588 27.6492L10.4289 25.8441L11.0708 25.4393L12.7882 25.6259L13.6247 26.8083L15.2074 27.6794L15.775 26.4347L16.4618 26.3104L18.7613 26.3728L19.6273 27.4933H20.8817L21.5985 29.3295L22.7034 29.9521L23.3304 30.45L25.5705 29.7966L27.6016 30.2634L27.7507 29.0498L29.3634 29.174L31.6035 29.6408L33.4849 28.3648L34.2616 28.1475V26.5915L35.3369 25.6892L36.9201 26.6226L38.4733 27.0894L39.3393 26L39.847 27.4314L39.638 28.3025L39.847 29.5784L40.2056 29.1117L41.0716 28.4895V25.5333L39.877 23.0438L40.8327 23.2927L41.9974 25.1908H42.326V24.7869L42.9231 24.5691L41.9076 24.0712L41.1908 22.9819L39.4884 21.706L39.1597 22.6082L38.234 22.9195L37.6963 22.7953L37.6065 20.0568L39.279 18.034L39.8167 17.4114L39.0999 15.6688L39.4585 15.202L39.9364 15.2332L39.5778 14.0508L39.8765 13.9266L40.4142 14.7353ZM39.5289 13.0197L39.2301 13.144C38.7747 13.3338 38.5371 13.8569 38.6845 14.3442L38.7505 14.5625C38.7426 14.5721 38.7347 14.5822 38.7268 14.5923L38.3682 15.059C38.1521 15.34 38.1024 15.7224 38.2388 16.0534L38.7197 17.2225L38.5829 17.3812C38.5785 17.3862 38.5741 17.3917 38.5697 17.3972L36.8972 19.42C36.7437 19.6057 36.6627 19.845 36.6706 20.0903L36.7604 22.8288C36.7749 23.2735 37.0763 23.6517 37.4934 23.7485L38.0311 23.8732C38.098 23.8887 38.1662 23.8965 38.2344 23.8965C38.3316 23.8965 38.4284 23.881 38.5222 23.8493L39.1197 23.6485L39.8589 25.1885C39.7516 25.1143 39.6288 25.0624 39.4972 25.0391C39.4449 25.0299 39.3921 25.0253 39.3397 25.0253C39.0634 25.0253 38.7981 25.1528 38.6185 25.3788L38.1438 25.9757L37.2862 25.7181L35.7989 24.841C35.6551 24.7562 35.4962 24.7145 35.3378 24.7145C35.1284 24.7145 34.9202 24.7874 34.75 24.9304L33.6746 25.8331C33.4537 26.0184 33.3257 26.298 33.3257 26.5933V27.4011L33.2425 27.4245C33.1474 27.4511 33.0572 27.4933 32.975 27.5487L31.4134 28.6074L29.5482 28.2186C29.5103 28.2108 29.472 28.2053 29.4338 28.2025L27.8211 28.0783C27.7978 28.0765 27.7745 28.0755 27.7512 28.0755C27.2839 28.0755 26.883 28.4373 26.8228 28.9274L26.8038 29.0819L25.7733 28.8453C25.7069 28.8302 25.6391 28.8224 25.5714 28.8224C25.4864 28.8224 25.4011 28.8343 25.3188 28.8586L23.528 29.3813L23.2719 29.1777C23.2332 29.147 23.1922 29.1195 23.1495 29.0956L22.3404 28.6399L21.7503 27.1283C21.6069 26.7606 21.2637 26.5199 20.8826 26.5199H20.0765L19.4917 25.7635C19.3193 25.5402 19.0614 25.4077 18.7864 25.3999L16.4869 25.3375C16.479 25.3375 16.4706 25.3371 16.4627 25.3371C16.409 25.3371 16.3554 25.3421 16.3021 25.3513L15.6153 25.4755C15.3156 25.5296 15.06 25.7323 14.9297 26.0184L14.7819 26.343L14.2526 26.0518L13.5433 25.0491C13.3871 24.8282 13.1486 24.686 12.8863 24.6572L11.169 24.4706C11.1364 24.4669 11.1043 24.4655 11.0717 24.4655C10.9014 24.4655 10.7338 24.5141 10.5868 24.6063L9.94486 25.0111C9.65929 25.1908 9.48725 25.5154 9.49297 25.8629L9.50969 26.8688L9.03404 26.9775C8.81492 27.0275 8.62527 27.1563 8.49371 27.3342L7.69289 26.2334V26.0284L9.30641 25.2344C9.75082 25.0157 9.95762 24.4761 9.77986 23.9988L9.0666 22.0842V21.7335L9.15944 21.5235C9.16648 21.507 9.17352 21.4905 9.17968 21.474L9.76578 19.933L10.6128 18.6823L12.4353 17.9497C12.4463 17.9588 12.4578 17.968 12.4692 17.9772L13.395 18.6929C13.56 18.8203 13.7562 18.885 13.9533 18.885C14.1214 18.885 14.2904 18.8377 14.4404 18.7428L14.7467 18.5484L15.2527 18.7355C15.331 18.7644 15.4115 18.7818 15.4912 18.7887C15.6056 18.8565 15.7358 18.9006 15.8753 18.9125L17.928 19.0931L18.7578 19.2948C18.8282 19.3118 18.8995 19.3205 18.9708 19.3205C19.0289 19.3205 19.0865 19.315 19.1433 19.3036L19.6915 19.7643L19.6436 19.8115C19.4297 20.0211 19.3223 20.3227 19.3536 20.6272C19.3848 20.9311 19.5512 21.2026 19.8028 21.3598L20.1016 21.5464C20.2503 21.6395 20.4171 21.6853 20.5834 21.6853C20.7779 21.6853 20.9724 21.6221 21.1361 21.4973L22.6893 20.3149C22.9986 20.0793 23.139 19.6717 23.0439 19.2852L22.9053 18.7199L23.0026 18.7502C23.091 18.7777 23.1817 18.7914 23.2719 18.7914C23.476 18.7914 23.6776 18.7217 23.843 18.5888C24.0819 18.3972 24.2175 18.0978 24.2082 17.7837L24.2073 17.7516C24.4841 17.6618 24.7107 17.4412 24.811 17.1478L24.8537 17.0226L26.2903 16.0507C26.3946 15.9801 26.4844 15.8888 26.5543 15.782L26.6569 15.6252L26.784 15.6504L26.4399 16.5037C26.3018 16.8461 26.3625 17.2409 26.5961 17.5215C26.7765 17.7379 27.0362 17.8575 27.3037 17.8575C27.3829 17.8575 27.4625 17.847 27.5413 17.8254L29.9305 17.1721C30.2099 17.0955 30.4401 16.8892 30.5536 16.6128L30.565 16.5853L31.266 17.0304C31.4138 17.1244 31.5832 17.173 31.7535 17.173C31.8274 17.173 31.9022 17.1639 31.9753 17.1455C32.2168 17.0841 32.4254 16.925 32.5543 16.7035L33.4726 15.1259L34.3223 14.8605C34.4631 14.8165 34.592 14.7385 34.6985 14.6331L35.6221 13.7189H36.114C36.517 13.7189 36.8752 13.4502 37.0028 13.0513L37.6223 11.1148L38.3184 10.3651L38.6089 10.1382C38.6146 10.1469 38.6207 10.1552 38.6269 10.1634L39.2244 10.9726C39.4017 11.2129 39.6759 11.3536 39.9667 11.3536H40.0719L40.4217 13.1311C40.2628 13.0128 40.0719 12.9491 39.877 12.9491C39.7599 12.95 39.642 12.9725 39.5289 13.0197Z" fill="white"/>
<path d="M23.5286 16.4468L25.1716 15.2021L26.5453 14.6419V14.3306L25.7986 14.673L24.8728 14.5176L23.1704 15.8866V16.3845V17.0383L23.4093 17.1625L23.5286 16.4468Z" fill="url(#paint1_linear)"/>
<path d="M23.5286 16.4468L25.1716 15.2021L26.5453 14.6419V14.3306L25.7986 14.673L24.8728 14.5176L23.1704 15.8866V16.3845V17.0383L23.4093 17.1625L23.5286 16.4468Z" fill="white"/>
<path d="M25.0558 12.2458L24.7725 13.0238H25.2204L25.0558 12.2458Z" fill="url(#paint2_linear)"/>
<path d="M25.0558 12.2458L24.7725 13.0238H25.2204L25.0558 12.2458Z" fill="white"/>
<path d="M25.0127 13.8637L25.2217 13.4438L25.0127 13.0238L24.3707 13.4282L25.0127 13.8637Z" fill="url(#paint3_linear)"/>
<path d="M25.0127 13.8637L25.2217 13.4438L25.0127 13.0238L24.3707 13.4282L25.0127 13.8637Z" fill="white"/>
<path d="M25.4593 13.8637L25.0114 13.4437L24.7725 14.3304L25.4593 13.8637Z" fill="url(#paint4_linear)"/>
<path d="M25.4593 13.8637L25.0114 13.4437L24.7725 14.3304L25.4593 13.8637Z" fill="white"/>
<path d="M25.2802 12.8992L25.0413 13.0239H24.7725V13.6772L25.549 13.3503L25.2802 12.8992Z" fill="url(#paint5_linear)"/>
<path d="M25.2802 12.8992L25.0413 13.0239H24.7725V13.6772L25.549 13.3503L25.2802 12.8992Z" fill="white"/>
<path d="M25.1606 12.2458L24.7725 12.6346V13.0238L25.1606 12.6346V12.2458Z" fill="url(#paint6_linear)"/>
<path d="M25.1606 12.2458L24.7725 12.6346V13.0238L25.1606 12.6346V12.2458Z" fill="white"/>
<path d="M24.9291 19.696L24.7725 19.8593V20.1128L24.9463 20.3123L25.2419 20.0858L24.9291 19.696Z" fill="url(#paint7_linear)"/>
<path d="M24.9291 19.696L24.7725 19.8593V20.1128L24.9463 20.3123L25.2419 20.0858L24.9291 19.696Z" fill="white"/>
<path d="M24.7725 21.9971V22.3597L25.0505 22.6133V22.0878L24.7725 21.9971Z" fill="url(#paint8_linear)"/>
<path d="M24.7725 21.9971V22.3597L25.0505 22.6133V22.0878L24.7725 21.9971Z" fill="white"/>
<path d="M24.7725 23.483L25.0681 23.3922L24.7725 22.8851V23.483Z" fill="url(#paint9_linear)"/>
<path d="M24.7725 23.483L25.0681 23.3922L24.7725 22.8851V23.483Z" fill="white"/>
<path d="M24.7725 24.57L24.8895 24.8419L25.1636 24.5159L25.007 23.9359L24.7725 24.57Z" fill="url(#paint10_linear)"/>
<path d="M24.7725 24.57L24.8895 24.8419L25.1636 24.5159L25.007 23.9359L24.7725 24.57Z" fill="white"/>
<path d="M1.62295 17.9886V17.6104L0.855159 17.2317H0.75L1.12092 17.9886H1.62295Z" fill="url(#paint11_linear)"/>
<path d="M1.62295 17.9886V17.6104L0.855159 17.2317H0.75L1.12092 17.9886H1.62295Z" fill="white"/>
<path d="M18.4566 3.88432H16.0827V5.2917H18.3888V6.41083H16.0827V8.69995H14.9127V2.76519H18.4566V3.88432ZM24.6843 8.69995L23.4889 6.63974H22.5987V8.69995H21.4287V2.76519H23.8026C24.3508 2.76519 24.8171 2.95736 25.2015 3.34171C25.5858 3.72606 25.778 4.18953 25.778 4.73214C25.778 5.09953 25.6735 5.44149 25.4643 5.75801C25.2552 6.06887 24.9782 6.30344 24.6335 6.4617L25.9476 8.69995H24.6843ZM22.5987 3.85888V5.61388H23.8026C24.023 5.61388 24.2124 5.52909 24.3706 5.35953C24.5289 5.18431 24.608 4.97518 24.608 4.73214C24.608 4.4891 24.5289 4.28279 24.3706 4.11323C24.2124 3.94367 24.023 3.85888 23.8026 3.85888H22.5987ZM29.9261 7.58083H32.4271V8.69995H28.7561V2.76519H32.3847V3.88432H29.9261V5.14757H32.1728V6.24974H29.9261V7.58083ZM16.0827 17.5808H18.5838V18.7H14.9127V12.7652H18.5414V13.8843H16.0827V15.1476H18.3294V16.2497H16.0827V17.5808Z" fill="url(#paint12_linear)"/>
<path d="M18.4566 3.88432H16.0827V5.2917H18.3888V6.41083H16.0827V8.69995H14.9127V2.76519H18.4566V3.88432ZM24.6843 8.69995L23.4889 6.63974H22.5987V8.69995H21.4287V2.76519H23.8026C24.3508 2.76519 24.8171 2.95736 25.2015 3.34171C25.5858 3.72606 25.778 4.18953 25.778 4.73214C25.778 5.09953 25.6735 5.44149 25.4643 5.75801C25.2552 6.06887 24.9782 6.30344 24.6335 6.4617L25.9476 8.69995H24.6843ZM22.5987 3.85888V5.61388H23.8026C24.023 5.61388 24.2124 5.52909 24.3706 5.35953C24.5289 5.18431 24.608 4.97518 24.608 4.73214C24.608 4.4891 24.5289 4.28279 24.3706 4.11323C24.2124 3.94367 24.023 3.85888 23.8026 3.85888H22.5987ZM29.9261 7.58083H32.4271V8.69995H28.7561V2.76519H32.3847V3.88432H29.9261V5.14757H32.1728V6.24974H29.9261V7.58083ZM16.0827 17.5808H18.5838V18.7H14.9127V12.7652H18.5414V13.8843H16.0827V15.1476H18.3294V16.2497H16.0827V17.5808Z" fill="white"/>
<defs>
<linearGradient id="paint0_linear" x1="54.0765" y1="-1.96422" x2="52.0088" y2="47.4833" gradientUnits="userSpaceOnUse">
<stop offset="0.0597382" stop-color="#6BE3DF"/>
<stop offset="1" stop-color="#FFB3EA"/>
</linearGradient>
<linearGradient id="paint1_linear" x1="27.5285" y1="13.1617" x2="27.1869" y2="19.2564" gradientUnits="userSpaceOnUse">
<stop offset="0.0597382" stop-color="#6BE3DF"/>
<stop offset="1" stop-color="#FFB3EA"/>
</linearGradient>
<linearGradient id="paint2_linear" x1="25.3509" y1="11.9247" x2="25.1586" y2="13.5821" gradientUnits="userSpaceOnUse">
<stop offset="0.0597382" stop-color="#6BE3DF"/>
<stop offset="1" stop-color="#FFB3EA"/>
</linearGradient>
<linearGradient id="paint3_linear" x1="25.4696" y1="12.6771" x2="25.3506" y2="14.4826" gradientUnits="userSpaceOnUse">
<stop offset="0.0597382" stop-color="#6BE3DF"/>
<stop offset="1" stop-color="#FFB3EA"/>
</linearGradient>
<linearGradient id="paint4_linear" x1="25.6594" y1="13.0777" x2="25.4956" y2="14.9779" gradientUnits="userSpaceOnUse">
<stop offset="0.0597382" stop-color="#6BE3DF"/>
<stop offset="1" stop-color="#FFB3EA"/>
</linearGradient>
<linearGradient id="paint5_linear" x1="25.7753" y1="12.578" x2="25.6634" y2="14.2503" gradientUnits="userSpaceOnUse">
<stop offset="0.0597382" stop-color="#6BE3DF"/>
<stop offset="1" stop-color="#FFB3EA"/>
</linearGradient>
<linearGradient id="paint6_linear" x1="25.2736" y1="11.9247" x2="25.0527" y2="13.5748" gradientUnits="userSpaceOnUse">
<stop offset="0.0597382" stop-color="#6BE3DF"/>
<stop offset="1" stop-color="#FFB3EA"/>
</linearGradient>
<linearGradient id="paint7_linear" x1="25.3787" y1="19.4417" x2="25.263" y2="20.7619" gradientUnits="userSpaceOnUse">
<stop offset="0.0597382" stop-color="#6BE3DF"/>
<stop offset="1" stop-color="#FFB3EA"/>
</linearGradient>
<linearGradient id="paint8_linear" x1="25.1316" y1="21.7427" x2="24.9389" y2="23.0445" gradientUnits="userSpaceOnUse">
<stop offset="0.0597382" stop-color="#6BE3DF"/>
<stop offset="1" stop-color="#FFB3EA"/>
</linearGradient>
<linearGradient id="paint9_linear" x1="25.1543" y1="22.6384" x2="24.9831" y2="23.906" gradientUnits="userSpaceOnUse">
<stop offset="0.0597382" stop-color="#6BE3DF"/>
<stop offset="1" stop-color="#FFB3EA"/>
</linearGradient>
<linearGradient id="paint10_linear" x1="25.2776" y1="23.562" x2="24.9821" y2="25.4722" gradientUnits="userSpaceOnUse">
<stop offset="0.0597382" stop-color="#6BE3DF"/>
<stop offset="1" stop-color="#FFB3EA"/>
</linearGradient>
<linearGradient id="paint11_linear" x1="1.87727" y1="16.9193" x2="1.78295" y2="18.548" gradientUnits="userSpaceOnUse">
<stop offset="0.0597382" stop-color="#6BE3DF"/>
<stop offset="1" stop-color="#FFB3EA"/>
</linearGradient>
<linearGradient id="paint12_linear" x1="41.7625" y1="-2.93562" x2="41.2357" y2="16.0654" gradientUnits="userSpaceOnUse">
<stop offset="0.0597382" stop-color="#6BE3DF"/>
<stop offset="1" stop-color="#FFB3EA"/>
</linearGradient>
</defs>
</svg>
