<svg width="44" height="26" viewBox="0 0 44 26" fill="none" xmlns="http://www.w3.org/2000/svg">
<path d="M38.5628 8.28284L39.127 10.9452L40.3547 12.8123L41.8811 13.6421L41.7153 12.2937L41.4499 10.7378L39.4917 9.32006L39.193 8.35212L39.6907 6.79629L39.1597 4.09932L39.06 3.44215H38.0646L37.4006 2.54299L38.6288 1.54041L38.0313 0.25L37.4006 0.468549V1.16037L35.5427 2.61176L34.5473 3.68362L33.7841 6.06984H32.8219L31.4944 7.38368L30.167 7.79887L28.9393 9.90795L27.5787 9.04343L26.8487 9.45863L26.6497 9.94259L23.9949 10.6685L24.6916 8.93951L24.0276 8.31697L22.7999 8.07499L22.3022 8.83558L20.4106 10.1148L20.2448 10.5988L19.4816 10.6334L19.5149 11.7053L18.8509 11.4979L18.6187 11.7399L18.2535 10.9793L17.8882 12.1204L18.2535 13.6075L16.5276 14.9213L16.1956 14.714L17.2908 13.6421L17.722 10.53L16.5271 11.7058L16.4606 12.5356L16.4273 13.2275L15.3986 12.3629L14.7352 11.3257V12.2937L13.7397 12.0517L11.3836 11.8443L11.4169 10.7378L10.9524 11.7058L9.92322 11.3257L9.16001 11.8097L8.13132 11.0145L8.82803 9.94259L9.2265 9.90795L9.45874 10.9452L10.0562 11.0145L10.7529 10.2192L9.88997 8.31748L8.46281 8.87073L7.10214 10.8418L4.77927 11.7756L3.58435 13.5392L2.88764 15.3712L2.68865 15.8205V16.6504L3.55159 18.9673L1.16174 20.1431V21.4223L2.7214 23.566L3.15312 25.1911L3.51834 24.9838L3.91682 22.9435L5.27748 22.6322L5.24424 20.6266L5.95757 20.1767L7.86583 20.3841L8.79527 21.6979L10.5539 22.6658L11.1846 21.2827L11.9478 21.1447L14.5029 21.2139L15.4651 22.459H16.8591L17.6555 24.4993L18.8832 25.1911L19.5799 25.7444L22.069 25.0184L24.3259 25.537L24.4916 24.1886L26.2835 24.3266L28.7726 24.8452L30.8632 23.4275L31.7262 23.186V21.4569L32.9211 20.4544L34.6802 21.4916L36.4061 22.0102L37.3683 20.7998L37.9326 22.3902L37.7003 23.3582L37.9326 24.7759L38.331 24.2573L39.2932 23.566V20.2812L37.9658 17.5149L39.0277 17.7915L40.3219 19.9006H40.6871V19.4518L41.3506 19.2098L40.2222 18.6566L39.4257 17.4461L37.5341 16.0284L37.1689 17.0309L36.1402 17.3768L35.5427 17.2388L35.443 14.1959L37.3014 11.9483L37.8988 11.2564L37.1024 9.32006L37.5008 8.80145L38.0318 8.83609L37.6333 7.52225L37.9653 7.38419L38.5628 8.28284ZM37.5791 6.37652L37.2471 6.51458C36.7411 6.72548 36.477 7.30675 36.6408 7.84829L36.7142 8.09078C36.7054 8.10148 36.6966 8.11269 36.6878 8.12389L36.2893 8.6425C36.0492 8.95479 35.994 9.37966 36.1455 9.74748L36.6799 11.0465L36.5279 11.2228C36.523 11.2284 36.5181 11.2345 36.5132 11.2406L34.6548 13.4883C34.4842 13.6946 34.3942 13.9605 34.403 14.2331L34.5028 17.276C34.5189 17.7701 34.8538 18.1904 35.3173 18.2979L35.9148 18.4365C35.9891 18.4538 36.0649 18.4625 36.1407 18.4625C36.2487 18.4625 36.3563 18.4451 36.4604 18.41L37.1244 18.1868L37.9458 19.8981C37.8265 19.8155 37.69 19.758 37.5439 19.732C37.4857 19.7218 37.427 19.7167 37.3688 19.7167C37.0618 19.7167 36.767 19.8583 36.5675 20.1095L36.0399 20.7728L35.087 20.4865L33.4345 19.5119C33.2746 19.4177 33.0981 19.3713 32.9221 19.3713C32.6894 19.3713 32.4581 19.4523 32.2689 19.6112L31.074 20.6143C30.8285 20.8201 30.6862 21.1309 30.6862 21.459V22.3566L30.5938 22.3826C30.4882 22.4121 30.388 22.459 30.2966 22.5207L28.5614 23.6969L26.4889 23.2649C26.4468 23.2563 26.4043 23.2502 26.3617 23.2471L24.5698 23.1091C24.5439 23.107 24.518 23.106 24.4921 23.106C23.9729 23.106 23.5275 23.5079 23.4605 24.0525L23.4395 24.2242L22.2944 23.9613C22.2206 23.9445 22.1453 23.9359 22.07 23.9359C21.9756 23.9359 21.8808 23.9491 21.7893 23.9761L19.7994 24.5569L19.5149 24.3307C19.4719 24.2966 19.4264 24.266 19.379 24.2395L18.4798 23.7331L17.8242 22.0535C17.6648 21.6449 17.2834 21.3775 16.86 21.3775H15.9643L15.3146 20.5369C15.1229 20.2888 14.8364 20.1416 14.5308 20.1329L11.9757 20.0636C11.9669 20.0636 11.9576 20.0631 11.9488 20.0631C11.8892 20.0631 11.8295 20.0687 11.7704 20.0789L11.0072 20.217C10.6742 20.2771 10.3901 20.5023 10.2454 20.8201L10.0811 21.1808L9.49297 20.8573L8.70482 19.7432C8.53126 19.4976 8.26626 19.3397 7.97486 19.3076L6.0666 19.1003C6.03042 19.0962 5.99473 19.0947 5.95855 19.0947C5.76934 19.0947 5.58306 19.1487 5.41976 19.2511L4.70642 19.7009C4.38911 19.9006 4.19795 20.2613 4.2043 20.6474L4.22288 21.7652L3.69436 21.8859C3.45087 21.9414 3.24015 22.0846 3.09396 22.2822L2.20412 21.0591V20.8313L3.997 19.949C4.49081 19.706 4.7206 19.1064 4.52308 18.5761L3.73054 16.4486V16.0589L3.8337 15.8256C3.84152 15.8073 3.84934 15.7889 3.85619 15.7706L4.50743 14.0584L5.44861 12.6686L7.47372 11.8545C7.48594 11.8647 7.49866 11.8749 7.51137 11.8851L8.54006 12.6803C8.7234 12.8219 8.94146 12.8938 9.1605 12.8938C9.34727 12.8938 9.53501 12.8413 9.70173 12.7358L10.042 12.5198L10.6043 12.7277C10.6913 12.7598 10.7808 12.7792 10.8693 12.7868C10.9964 12.8622 11.1411 12.9111 11.2961 12.9243L13.5769 13.1251L14.499 13.3492C14.5773 13.3681 14.6565 13.3777 14.7357 13.3777C14.8002 13.3777 14.8643 13.3716 14.9273 13.3589L15.5365 13.8709L15.4832 13.9234C15.2456 14.1562 15.1263 14.4914 15.161 14.8296C15.1957 15.1674 15.3806 15.469 15.6602 15.6437L15.9922 15.8511C16.1575 15.9545 16.3428 16.0054 16.5276 16.0054C16.7437 16.0054 16.9598 15.9351 17.1417 15.7966L18.8675 14.4827C19.2113 14.2209 19.3672 13.768 19.2616 13.3385L19.1076 12.7104L19.2157 12.744C19.3139 12.7746 19.4146 12.7898 19.5149 12.7898C19.7417 12.7898 19.9657 12.7124 20.1495 12.5647C20.415 12.3517 20.5656 12.0191 20.5553 11.6701L20.5543 11.6344C20.8619 11.5346 21.1137 11.2895 21.2251 10.9635L21.2726 10.8244L22.8689 9.74442C22.9848 9.66597 23.0845 9.56459 23.1622 9.44589L23.2762 9.27166L23.4175 9.29968L23.0351 10.2477C22.8816 10.6283 22.9491 11.0669 23.2087 11.3787C23.4091 11.6192 23.6976 11.7521 23.9949 11.7521C24.0829 11.7521 24.1714 11.7404 24.2589 11.7165L26.9137 10.9905C27.2242 10.9054 27.4799 10.6762 27.606 10.369L27.6188 10.3384L28.3976 10.8331C28.5619 10.9375 28.7501 10.9915 28.9393 10.9915C29.0215 10.9915 29.1046 10.9813 29.1857 10.961C29.4542 10.8927 29.6859 10.7159 29.8292 10.4699L30.8495 8.71688L31.7937 8.42192C31.9501 8.37301 32.0934 8.2864 32.2117 8.16923L33.2379 7.15341H33.7845C34.2324 7.15341 34.6304 6.85488 34.7722 6.41167L35.4606 4.2598L36.234 3.42686L36.5567 3.17469C36.5631 3.18437 36.5699 3.19354 36.5768 3.20271L37.2407 4.10187C37.4378 4.36882 37.7424 4.52521 38.0655 4.52521H38.1824L38.5711 6.50031C38.3946 6.36888 38.1824 6.29806 37.9658 6.29806C37.8357 6.29908 37.7047 6.32405 37.5791 6.37652Z" fill="url(#paint0_linear)"/>
<path d="M38.5628 8.28284L39.127 10.9452L40.3547 12.8123L41.8811 13.6421L41.7153 12.2937L41.4499 10.7378L39.4917 9.32006L39.193 8.35212L39.6907 6.79629L39.1597 4.09932L39.06 3.44215H38.0646L37.4006 2.54299L38.6288 1.54041L38.0313 0.25L37.4006 0.468549V1.16037L35.5427 2.61176L34.5473 3.68362L33.7841 6.06984H32.8219L31.4944 7.38368L30.167 7.79887L28.9393 9.90795L27.5787 9.04343L26.8487 9.45863L26.6497 9.94259L23.9949 10.6685L24.6916 8.93951L24.0276 8.31697L22.7999 8.07499L22.3022 8.83558L20.4106 10.1148L20.2448 10.5988L19.4816 10.6334L19.5149 11.7053L18.8509 11.4979L18.6187 11.7399L18.2535 10.9793L17.8882 12.1204L18.2535 13.6075L16.5276 14.9213L16.1956 14.714L17.2908 13.6421L17.722 10.53L16.5271 11.7058L16.4606 12.5356L16.4273 13.2275L15.3986 12.3629L14.7352 11.3257V12.2937L13.7397 12.0517L11.3836 11.8443L11.4169 10.7378L10.9524 11.7058L9.92322 11.3257L9.16001 11.8097L8.13132 11.0145L8.82803 9.94259L9.2265 9.90795L9.45874 10.9452L10.0562 11.0145L10.7529 10.2192L9.88997 8.31748L8.46281 8.87073L7.10214 10.8418L4.77927 11.7756L3.58435 13.5392L2.88764 15.3712L2.68865 15.8205V16.6504L3.55159 18.9673L1.16174 20.1431V21.4223L2.7214 23.566L3.15312 25.1911L3.51834 24.9838L3.91682 22.9435L5.27748 22.6322L5.24424 20.6266L5.95757 20.1767L7.86583 20.3841L8.79527 21.6979L10.5539 22.6658L11.1846 21.2827L11.9478 21.1447L14.5029 21.2139L15.4651 22.459H16.8591L17.6555 24.4993L18.8832 25.1911L19.5799 25.7444L22.069 25.0184L24.3259 25.537L24.4916 24.1886L26.2835 24.3266L28.7726 24.8452L30.8632 23.4275L31.7262 23.186V21.4569L32.9211 20.4544L34.6802 21.4916L36.4061 22.0102L37.3683 20.7998L37.9326 22.3902L37.7003 23.3582L37.9326 24.7759L38.331 24.2573L39.2932 23.566V20.2812L37.9658 17.5149L39.0277 17.7915L40.3219 19.9006H40.6871V19.4518L41.3506 19.2098L40.2222 18.6566L39.4257 17.4461L37.5341 16.0284L37.1689 17.0309L36.1402 17.3768L35.5427 17.2388L35.443 14.1959L37.3014 11.9483L37.8988 11.2564L37.1024 9.32006L37.5008 8.80145L38.0318 8.83609L37.6333 7.52225L37.9653 7.38419L38.5628 8.28284ZM37.5791 6.37652L37.2471 6.51458C36.7411 6.72548 36.477 7.30675 36.6408 7.84829L36.7142 8.09078C36.7054 8.10148 36.6966 8.11269 36.6878 8.12389L36.2893 8.6425C36.0492 8.95479 35.994 9.37966 36.1455 9.74748L36.6799 11.0465L36.5279 11.2228C36.523 11.2284 36.5181 11.2345 36.5132 11.2406L34.6548 13.4883C34.4842 13.6946 34.3942 13.9605 34.403 14.2331L34.5028 17.276C34.5189 17.7701 34.8538 18.1904 35.3173 18.2979L35.9148 18.4365C35.9891 18.4538 36.0649 18.4625 36.1407 18.4625C36.2487 18.4625 36.3563 18.4451 36.4604 18.41L37.1244 18.1868L37.9458 19.8981C37.8265 19.8155 37.69 19.758 37.5439 19.732C37.4857 19.7218 37.427 19.7167 37.3688 19.7167C37.0618 19.7167 36.767 19.8583 36.5675 20.1095L36.0399 20.7728L35.087 20.4865L33.4345 19.5119C33.2746 19.4177 33.0981 19.3713 32.9221 19.3713C32.6894 19.3713 32.4581 19.4523 32.2689 19.6112L31.074 20.6143C30.8285 20.8201 30.6862 21.1309 30.6862 21.459V22.3566L30.5938 22.3826C30.4882 22.4121 30.388 22.459 30.2966 22.5207L28.5614 23.6969L26.4889 23.2649C26.4468 23.2563 26.4043 23.2502 26.3617 23.2471L24.5698 23.1091C24.5439 23.107 24.518 23.106 24.4921 23.106C23.9729 23.106 23.5275 23.5079 23.4605 24.0525L23.4395 24.2242L22.2944 23.9613C22.2206 23.9445 22.1453 23.9359 22.07 23.9359C21.9756 23.9359 21.8808 23.9491 21.7893 23.9761L19.7994 24.5569L19.5149 24.3307C19.4719 24.2966 19.4264 24.266 19.379 24.2395L18.4798 23.7331L17.8242 22.0535C17.6648 21.6449 17.2834 21.3775 16.86 21.3775H15.9643L15.3146 20.5369C15.1229 20.2888 14.8364 20.1416 14.5308 20.1329L11.9757 20.0636C11.9669 20.0636 11.9576 20.0631 11.9488 20.0631C11.8892 20.0631 11.8295 20.0687 11.7704 20.0789L11.0072 20.217C10.6742 20.2771 10.3901 20.5023 10.2454 20.8201L10.0811 21.1808L9.49297 20.8573L8.70482 19.7432C8.53126 19.4976 8.26626 19.3397 7.97486 19.3076L6.0666 19.1003C6.03042 19.0962 5.99473 19.0947 5.95855 19.0947C5.76934 19.0947 5.58306 19.1487 5.41976 19.2511L4.70642 19.7009C4.38911 19.9006 4.19795 20.2613 4.2043 20.6474L4.22288 21.7652L3.69436 21.8859C3.45087 21.9414 3.24015 22.0846 3.09396 22.2822L2.20412 21.0591V20.8313L3.997 19.949C4.49081 19.706 4.7206 19.1064 4.52308 18.5761L3.73054 16.4486V16.0589L3.8337 15.8256C3.84152 15.8073 3.84934 15.7889 3.85619 15.7706L4.50743 14.0584L5.44861 12.6686L7.47372 11.8545C7.48594 11.8647 7.49866 11.8749 7.51137 11.8851L8.54006 12.6803C8.7234 12.8219 8.94146 12.8938 9.1605 12.8938C9.34727 12.8938 9.53501 12.8413 9.70173 12.7358L10.042 12.5198L10.6043 12.7277C10.6913 12.7598 10.7808 12.7792 10.8693 12.7868C10.9964 12.8622 11.1411 12.9111 11.2961 12.9243L13.5769 13.1251L14.499 13.3492C14.5773 13.3681 14.6565 13.3777 14.7357 13.3777C14.8002 13.3777 14.8643 13.3716 14.9273 13.3589L15.5365 13.8709L15.4832 13.9234C15.2456 14.1562 15.1263 14.4914 15.161 14.8296C15.1957 15.1674 15.3806 15.469 15.6602 15.6437L15.9922 15.8511C16.1575 15.9545 16.3428 16.0054 16.5276 16.0054C16.7437 16.0054 16.9598 15.9351 17.1417 15.7966L18.8675 14.4827C19.2113 14.2209 19.3672 13.768 19.2616 13.3385L19.1076 12.7104L19.2157 12.744C19.3139 12.7746 19.4146 12.7898 19.5149 12.7898C19.7417 12.7898 19.9657 12.7124 20.1495 12.5647C20.415 12.3517 20.5656 12.0191 20.5553 11.6701L20.5543 11.6344C20.8619 11.5346 21.1137 11.2895 21.2251 10.9635L21.2726 10.8244L22.8689 9.74442C22.9848 9.66597 23.0845 9.56459 23.1622 9.44589L23.2762 9.27166L23.4175 9.29968L23.0351 10.2477C22.8816 10.6283 22.9491 11.0669 23.2087 11.3787C23.4091 11.6192 23.6976 11.7521 23.9949 11.7521C24.0829 11.7521 24.1714 11.7404 24.2589 11.7165L26.9137 10.9905C27.2242 10.9054 27.4799 10.6762 27.606 10.369L27.6188 10.3384L28.3976 10.8331C28.5619 10.9375 28.7501 10.9915 28.9393 10.9915C29.0215 10.9915 29.1046 10.9813 29.1857 10.961C29.4542 10.8927 29.6859 10.7159 29.8292 10.4699L30.8495 8.71688L31.7937 8.42192C31.9501 8.37301 32.0934 8.2864 32.2117 8.16923L33.2379 7.15341H33.7845C34.2324 7.15341 34.6304 6.85488 34.7722 6.41167L35.4606 4.2598L36.234 3.42686L36.5567 3.17469C36.5631 3.18437 36.5699 3.19354 36.5768 3.20271L37.2407 4.10187C37.4378 4.36882 37.7424 4.52521 38.0655 4.52521H38.1824L38.5711 6.50031C38.3946 6.36888 38.1824 6.29806 37.9658 6.29806C37.8357 6.29908 37.7047 6.32405 37.5791 6.37652Z" fill="white"/>
<path d="M14.5687 10.1846L16.3943 8.80145L17.9207 8.17892V7.83301L17.091 8.21356L16.0623 8.04086L14.1707 9.56204V10.1153V10.8418L14.4362 10.9798L14.5687 10.1846Z" fill="url(#paint1_linear)"/>
<path d="M14.5687 10.1846L16.3943 8.80145L17.9207 8.17892V7.83301L17.091 8.21356L16.0623 8.04086L14.1707 9.56204V10.1153V10.8418L14.4362 10.9798L14.5687 10.1846Z" fill="white"/>
<path d="M21.5213 5.5166L21.2064 6.38119H21.7042L21.5213 5.5166Z" fill="url(#paint2_linear)"/>
<path d="M21.5213 5.5166L21.2064 6.38119H21.7042L21.5213 5.5166Z" fill="white"/>
<path d="M22.1688 7.31439L22.401 6.84775L22.1688 6.3811L21.4554 6.83042L22.1688 7.31439Z" fill="url(#paint3_linear)"/>
<path d="M22.1688 7.31439L22.401 6.84775L22.1688 6.3811L21.4554 6.83042L22.1688 7.31439Z" fill="white"/>
<path d="M23.1649 7.31433L22.6672 6.84766L22.4017 7.83296L23.1649 7.31433Z" fill="url(#paint4_linear)"/>
<path d="M23.1649 7.31433L22.6672 6.84766L22.4017 7.83296L23.1649 7.31433Z" fill="white"/>
<path d="M28.5408 6.24255L28.2753 6.38111H27.9766V7.10698L28.8395 6.74379L28.5408 6.24255Z" fill="url(#paint5_linear)"/>
<path d="M28.5408 6.24255L28.2753 6.38111H27.9766V7.10698L28.8395 6.74379L28.5408 6.24255Z" fill="white"/>
<path d="M29.6695 5.5166L29.2383 5.94864V6.38119L29.6695 5.94864V5.5166Z" fill="url(#paint6_linear)"/>
<path d="M29.6695 5.5166L29.2383 5.94864V6.38119L29.6695 5.94864V5.5166Z" fill="white"/>
<path d="M42.2453 13.7949L42.0713 13.9763V14.258L42.2644 14.4797L42.593 14.228L42.2453 13.7949Z" fill="url(#paint7_linear)"/>
<path d="M42.2453 13.7949L42.0713 13.9763V14.258L42.2644 14.4797L42.593 14.228L42.2453 13.7949Z" fill="white"/>
<path d="M42.9412 16.3518V16.7548L43.2502 17.0365V16.4527L42.9412 16.3518Z" fill="url(#paint8_linear)"/>
<path d="M42.9412 16.3518V16.7548L43.2502 17.0365V16.4527L42.9412 16.3518Z" fill="white"/>
<path d="M42.7669 18.0029L43.0955 17.902L42.7669 17.3386V18.0029Z" fill="url(#paint9_linear)"/>
<path d="M42.7669 18.0029L43.0955 17.902L42.7669 17.3386V18.0029Z" fill="white"/>
<path d="M42.3319 19.2108L42.462 19.5129L42.7665 19.1507L42.5925 18.5062L42.3319 19.2108Z" fill="url(#paint10_linear)"/>
<path d="M42.3319 19.2108L42.462 19.5129L42.7665 19.1507L42.5925 18.5062L42.3319 19.2108Z" fill="white"/>
<path d="M1.72002 11.8978V11.4776L0.866852 11.0568H0.75L1.16216 11.8978H1.72002Z" fill="url(#paint11_linear)"/>
<path d="M1.72002 11.8978V11.4776L0.866852 11.0568H0.75L1.16216 11.8978H1.72002Z" fill="white"/>
<defs>
<linearGradient id="paint0_linear" x1="53.7438" y1="-10.2731" x2="51.4462" y2="44.6712" gradientUnits="userSpaceOnUse">
<stop offset="0.0597382" stop-color="#6BE3DF"/>
<stop offset="1" stop-color="#FFB3EA"/>
</linearGradient>
<linearGradient id="paint1_linear" x1="19.0132" y1="6.53413" x2="18.6337" y2="13.3066" gradientUnits="userSpaceOnUse">
<stop offset="0.0597382" stop-color="#6BE3DF"/>
<stop offset="1" stop-color="#FFB3EA"/>
</linearGradient>
<linearGradient id="paint2_linear" x1="21.8492" y1="5.15973" x2="21.6355" y2="7.00152" gradientUnits="userSpaceOnUse">
<stop offset="0.0597382" stop-color="#6BE3DF"/>
<stop offset="1" stop-color="#FFB3EA"/>
</linearGradient>
<linearGradient id="paint3_linear" x1="22.6765" y1="5.99588" x2="22.5443" y2="8.00205" gradientUnits="userSpaceOnUse">
<stop offset="0.0597382" stop-color="#6BE3DF"/>
<stop offset="1" stop-color="#FFB3EA"/>
</linearGradient>
<linearGradient id="paint4_linear" x1="23.3873" y1="6.44096" x2="23.2052" y2="8.55246" gradientUnits="userSpaceOnUse">
<stop offset="0.0597382" stop-color="#6BE3DF"/>
<stop offset="1" stop-color="#FFB3EA"/>
</linearGradient>
<linearGradient id="paint5_linear" x1="29.0909" y1="5.88575" x2="28.9666" y2="7.74366" gradientUnits="userSpaceOnUse">
<stop offset="0.0597382" stop-color="#6BE3DF"/>
<stop offset="1" stop-color="#FFB3EA"/>
</linearGradient>
<linearGradient id="paint6_linear" x1="29.7951" y1="5.15973" x2="29.5496" y2="6.99343" gradientUnits="userSpaceOnUse">
<stop offset="0.0597382" stop-color="#6BE3DF"/>
<stop offset="1" stop-color="#FFB3EA"/>
</linearGradient>
<linearGradient id="paint7_linear" x1="42.7449" y1="13.5123" x2="42.6163" y2="14.9793" gradientUnits="userSpaceOnUse">
<stop offset="0.0597382" stop-color="#6BE3DF"/>
<stop offset="1" stop-color="#FFB3EA"/>
</linearGradient>
<linearGradient id="paint8_linear" x1="43.3403" y1="16.0692" x2="43.1262" y2="17.5157" gradientUnits="userSpaceOnUse">
<stop offset="0.0597382" stop-color="#6BE3DF"/>
<stop offset="1" stop-color="#FFB3EA"/>
</linearGradient>
<linearGradient id="paint9_linear" x1="43.1912" y1="17.0644" x2="43.001" y2="18.4728" gradientUnits="userSpaceOnUse">
<stop offset="0.0597382" stop-color="#6BE3DF"/>
<stop offset="1" stop-color="#FFB3EA"/>
</linearGradient>
<linearGradient id="paint10_linear" x1="42.8932" y1="18.0907" x2="42.5648" y2="20.2133" gradientUnits="userSpaceOnUse">
<stop offset="0.0597382" stop-color="#6BE3DF"/>
<stop offset="1" stop-color="#FFB3EA"/>
</linearGradient>
<linearGradient id="paint11_linear" x1="2.00261" y1="10.7096" x2="1.89781" y2="12.5193" gradientUnits="userSpaceOnUse">
<stop offset="0.0597382" stop-color="#6BE3DF"/>
<stop offset="1" stop-color="#FFB3EA"/>
</linearGradient>
</defs>
</svg>
