<svg width="8" height="14" viewBox="0 0 8 14" fill="none" xmlns="http://www.w3.org/2000/svg">
<path d="M6.9339 0.636475H5.29133C3.46282 0.636475 2.25414 1.85604 2.25414 3.76357V5.2333H0.611581C0.456622 5.2333 0.363647 5.35839 0.363647 5.48347V7.57862C0.363647 7.73498 0.487614 7.82879 0.611581 7.82879H2.25414V13.1136C2.25414 13.2699 2.37811 13.3637 2.50208 13.3637H4.64051C4.79546 13.3637 4.88844 13.2387 4.88844 13.1136V7.82879H6.80993C6.96489 7.82879 7.05786 7.70371 7.05786 7.57862V5.48347C7.05786 5.42093 7.02687 5.35839 6.99588 5.29585C6.99588 5.2333 6.9029 5.2333 6.84092 5.2333H4.91943V3.98247C4.91943 3.38832 5.0434 3.10688 5.81819 3.10688H6.9339C7.08885 3.10688 7.18183 2.9818 7.18183 2.85671V0.917914C7.18183 0.761559 7.05786 0.636475 6.9339 0.636475Z" fill="#97CBF2"/>
</svg>
