<svg width="44" height="34" viewBox="0 0 44 34" fill="none" xmlns="http://www.w3.org/2000/svg">
<path d="M42.463 17.9862H38.213L36.9065 5.40643C36.8161 4.68073 36.5802 3.98296 36.2141 3.35848C35.848 2.734 35.3599 2.19678 34.7815 1.78175C34.2069 1.36238 33.5531 1.07528 32.8638 0.939542C32.1744 0.803803 31.4652 0.822532 30.7833 0.994485L26.4546 2.09337C23.5253 2.81501 20.4747 2.81501 17.5454 2.09337L13.2167 0.994485C12.5326 0.827906 11.8226 0.812734 11.1326 0.949948C10.4426 1.08716 9.78788 1.37371 9.21079 1.79107C8.6337 2.20843 8.14707 2.74731 7.78237 3.3729C7.41766 3.99848 7.18299 4.69683 7.09352 5.42283L5.78704 17.9862H1.53704C1.3283 17.9862 1.12812 18.0726 0.980518 18.2264C0.83292 18.3802 0.75 18.5888 0.75 18.8063C0.75 19.0238 0.83292 19.2324 0.980518 19.3861C1.12812 19.5399 1.3283 19.6263 1.53704 19.6263H42.463C42.6717 19.6263 42.8719 19.5399 43.0195 19.3861C43.1671 19.2324 43.25 19.0238 43.25 18.8063C43.25 18.5888 43.1671 18.3802 43.0195 18.2264C42.8719 18.0726 42.6717 17.9862 42.463 17.9862ZM7.83333 13.4267H30.1852C30.3939 13.4267 30.5941 13.3403 30.7417 13.1865C30.8893 13.0327 30.9722 12.8241 30.9722 12.6066C30.9722 12.3891 30.8893 12.1805 30.7417 12.0267C30.5941 11.8729 30.3939 11.7865 30.1852 11.7865H8.02222L8.65185 5.55404C8.71358 5.05451 8.8759 4.5742 9.12817 4.14458C9.38044 3.71496 9.71698 3.34572 10.1157 3.06105C10.51 2.77516 10.9583 2.58043 11.4307 2.48991C11.9031 2.39939 12.3886 2.41517 12.8546 2.5362L17.1833 3.61869C20.35 4.40626 23.65 4.40626 26.8167 3.61869L31.1454 2.5362C31.6114 2.41517 32.0969 2.39939 32.5693 2.48991C33.0417 2.58043 33.49 2.77516 33.8843 3.06105C34.283 3.34572 34.6196 3.71496 34.8718 4.14458C35.1241 4.5742 35.2864 5.05451 35.3481 5.55404L36.6389 17.937H7.36111L7.83333 13.4267ZM35.9778 22.2341H8.00648C7.79775 22.2341 7.59756 22.3205 7.44996 22.4743C7.30236 22.6281 7.21944 22.8367 7.21944 23.0542V28.5158C7.21944 29.7614 7.69323 30.9562 8.53705 31.8385C9.38086 32.7208 10.5259 33.2187 11.7213 33.223H15.8926C17.0922 33.223 18.2429 32.7276 19.0926 31.8453C19.9423 30.963 20.4218 29.7657 20.4259 28.5158V27.6958H23.5741V28.5158C23.5782 29.7629 24.0555 30.9577 24.9018 31.8395C25.7481 32.7213 26.8948 33.2187 28.0917 33.223H32.263C33.4611 33.223 34.6102 32.7271 35.4574 31.8443C36.3046 30.9615 36.7806 29.7642 36.7806 28.5158V23.0542C36.7806 22.8367 36.6976 22.6281 36.55 22.4743C36.4024 22.3205 36.2023 22.2341 35.9935 22.2341H35.9778ZM18.8519 28.5158C18.8519 29.3293 18.5417 30.1094 17.9897 30.6845C17.4377 31.2597 16.689 31.5829 15.9083 31.5829H11.7213C10.9434 31.5785 10.1987 31.2535 9.65008 30.6788C9.10147 30.1041 8.79351 29.3264 8.79352 28.5158V23.8743H18.8519V28.5158ZM20.4259 26.0556V23.8743H23.5741V26.0556H20.4259ZM35.2222 28.5158C35.2222 29.3264 34.9143 30.1041 34.3657 30.6788C33.817 31.2535 33.0724 31.5785 32.2944 31.5829H28.1074C27.7195 31.585 27.3351 31.5073 26.9761 31.3541C26.6172 31.201 26.2908 30.9754 26.0158 30.6904C25.7408 30.4054 25.5226 30.0665 25.3737 29.6933C25.2248 29.3201 25.1481 28.92 25.1481 28.5158V23.8743H35.1907L35.2222 28.5158Z" fill="url(#paint0_linear)"/>
<path d="M42.463 17.9862H38.213L36.9065 5.40643C36.8161 4.68073 36.5802 3.98296 36.2141 3.35848C35.848 2.734 35.3599 2.19678 34.7815 1.78175C34.2069 1.36238 33.5531 1.07528 32.8638 0.939542C32.1744 0.803803 31.4652 0.822532 30.7833 0.994485L26.4546 2.09337C23.5253 2.81501 20.4747 2.81501 17.5454 2.09337L13.2167 0.994485C12.5326 0.827906 11.8226 0.812734 11.1326 0.949948C10.4426 1.08716 9.78788 1.37371 9.21079 1.79107C8.6337 2.20843 8.14707 2.74731 7.78237 3.3729C7.41766 3.99848 7.18299 4.69683 7.09352 5.42283L5.78704 17.9862H1.53704C1.3283 17.9862 1.12812 18.0726 0.980518 18.2264C0.83292 18.3802 0.75 18.5888 0.75 18.8063C0.75 19.0238 0.83292 19.2324 0.980518 19.3861C1.12812 19.5399 1.3283 19.6263 1.53704 19.6263H42.463C42.6717 19.6263 42.8719 19.5399 43.0195 19.3861C43.1671 19.2324 43.25 19.0238 43.25 18.8063C43.25 18.5888 43.1671 18.3802 43.0195 18.2264C42.8719 18.0726 42.6717 17.9862 42.463 17.9862ZM7.83333 13.4267H30.1852C30.3939 13.4267 30.5941 13.3403 30.7417 13.1865C30.8893 13.0327 30.9722 12.8241 30.9722 12.6066C30.9722 12.3891 30.8893 12.1805 30.7417 12.0267C30.5941 11.8729 30.3939 11.7865 30.1852 11.7865H8.02222L8.65185 5.55404C8.71358 5.05451 8.8759 4.5742 9.12817 4.14458C9.38044 3.71496 9.71698 3.34572 10.1157 3.06105C10.51 2.77516 10.9583 2.58043 11.4307 2.48991C11.9031 2.39939 12.3886 2.41517 12.8546 2.5362L17.1833 3.61869C20.35 4.40626 23.65 4.40626 26.8167 3.61869L31.1454 2.5362C31.6114 2.41517 32.0969 2.39939 32.5693 2.48991C33.0417 2.58043 33.49 2.77516 33.8843 3.06105C34.283 3.34572 34.6196 3.71496 34.8718 4.14458C35.1241 4.5742 35.2864 5.05451 35.3481 5.55404L36.6389 17.937H7.36111L7.83333 13.4267ZM35.9778 22.2341H8.00648C7.79775 22.2341 7.59756 22.3205 7.44996 22.4743C7.30236 22.6281 7.21944 22.8367 7.21944 23.0542V28.5158C7.21944 29.7614 7.69323 30.9562 8.53705 31.8385C9.38086 32.7208 10.5259 33.2187 11.7213 33.223H15.8926C17.0922 33.223 18.2429 32.7276 19.0926 31.8453C19.9423 30.963 20.4218 29.7657 20.4259 28.5158V27.6958H23.5741V28.5158C23.5782 29.7629 24.0555 30.9577 24.9018 31.8395C25.7481 32.7213 26.8948 33.2187 28.0917 33.223H32.263C33.4611 33.223 34.6102 32.7271 35.4574 31.8443C36.3046 30.9615 36.7806 29.7642 36.7806 28.5158V23.0542C36.7806 22.8367 36.6976 22.6281 36.55 22.4743C36.4024 22.3205 36.2023 22.2341 35.9935 22.2341H35.9778ZM18.8519 28.5158C18.8519 29.3293 18.5417 30.1094 17.9897 30.6845C17.4377 31.2597 16.689 31.5829 15.9083 31.5829H11.7213C10.9434 31.5785 10.1987 31.2535 9.65008 30.6788C9.10147 30.1041 8.79351 29.3264 8.79352 28.5158V23.8743H18.8519V28.5158ZM20.4259 26.0556V23.8743H23.5741V26.0556H20.4259ZM35.2222 28.5158C35.2222 29.3264 34.9143 30.1041 34.3657 30.6788C33.817 31.2535 33.0724 31.5785 32.2944 31.5829H28.1074C27.7195 31.585 27.3351 31.5073 26.9761 31.3541C26.6172 31.201 26.2908 30.9754 26.0158 30.6904C25.7408 30.4054 25.5226 30.0665 25.3737 29.6933C25.2248 29.3201 25.1481 28.92 25.1481 28.5158V23.8743H35.1907L35.2222 28.5158Z" fill="white"/>
<defs>
<linearGradient id="paint0_linear" x1="55.6314" y1="-12.5123" x2="52.0851" y2="57.198" gradientUnits="userSpaceOnUse">
<stop offset="0.0597382" stop-color="#6BE3DF"/>
<stop offset="1" stop-color="#FFB3EA"/>
</linearGradient>
</defs>
</svg>
