<svg width="20" height="20" viewBox="0 0 20 20" fill="none" xmlns="http://www.w3.org/2000/svg">
<path d="M12.7542 3.18188H7.24577C5.01156 3.18188 3.18182 5.01162 3.18182 7.24583V12.7543C3.18182 14.9885 5.01156 16.8182 7.24577 16.8182H12.7542C14.9884 16.8182 16.8182 14.9885 16.8182 12.7543V7.24583C16.7989 5.01162 14.9884 3.18188 12.7542 3.18188ZM15.4314 12.7543C15.4314 14.2374 14.2373 15.4508 12.735 15.4508H7.24577C5.76272 15.4508 4.54931 14.2566 4.54931 12.7543V7.24583C4.54931 5.76278 5.74346 4.54937 7.24577 4.54937H12.7542C14.2373 4.54937 15.4507 5.74352 15.4507 7.24583V12.7543H15.4314Z" fill="#97CBF2"/>
<path d="M10.0001 6.47534C8.05476 6.47534 6.4754 8.05469 6.4754 10C6.4754 11.9453 8.05476 13.5246 10.0001 13.5246C11.9454 13.5246 13.5247 11.9453 13.5247 10C13.5247 8.05469 11.9454 6.47534 10.0001 6.47534ZM10.0001 12.1379C8.80591 12.1379 7.84289 11.1749 7.84289 9.98073C7.84289 8.78659 8.80591 7.82357 10.0001 7.82357C11.1942 7.82357 12.1572 8.78659 12.1572 9.98073C12.138 11.1749 11.1749 12.1379 10.0001 12.1379Z" fill="#97CBF2"/>
<path d="M13.5247 7.34213C13.9927 7.34213 14.3722 6.96271 14.3722 6.49467C14.3722 6.02664 13.9927 5.64722 13.5247 5.64722C13.0567 5.64722 12.6772 6.02664 12.6772 6.49467C12.6772 6.96271 13.0567 7.34213 13.5247 7.34213Z" fill="#97CBF2"/>
</svg>
