<svg width="18" height="20" viewBox="0 0 18 20" fill="none" xmlns="http://www.w3.org/2000/svg">
<path d="M11.2618 14.7148C12.875 12.0391 14.9141 8.27734 14.9141 6.34375C14.9141 3.08203 12.2618 0.429688 9.00005 0.429688C5.73833 0.429688 3.08598 3.08203 3.08598 6.34375C3.08598 8.27734 5.12505 12.0391 6.73833 14.7148C4.82427 14.8594 0.468796 15.3789 0.468796 17.1016C0.468796 18.7969 4.89067 19.5703 9.00395 19.5703C13.1133 19.5703 17.5391 18.7969 17.5391 17.1016C17.5352 15.3789 13.1758 14.8594 11.2618 14.7148ZM3.90239 6.34375C3.90239 3.53125 6.19145 1.24219 9.00005 1.24219C11.8125 1.24219 14.1016 3.53125 14.1016 6.34375C14.1016 8.80078 10.1875 14.9648 9.00005 16.7773C7.81255 14.9648 3.90239 8.80078 3.90239 6.34375ZM9.00005 18.7539C4.00395 18.7539 1.2813 17.6602 1.2813 17.0977C1.2813 16.6641 3.07817 15.7305 7.2188 15.4922C7.99614 16.7461 8.58598 17.6328 8.66411 17.7383C8.76958 17.8789 9.07817 18.0469 9.33989 17.7383C9.42192 17.6406 10.0079 16.7461 10.7852 15.4922C14.9258 15.7305 16.7227 16.6602 16.7227 17.0977C16.7188 17.6641 13.9961 18.7539 9.00005 18.7539Z" fill="#97CBF2"/>
<path d="M11.5743 6.34375C11.5743 4.92187 10.4219 3.76953 9.00005 3.76953C7.57817 3.76953 6.42583 4.92187 6.42583 6.34375C6.42583 7.76562 7.57817 8.91797 9.00005 8.91797C10.4219 8.91797 11.5743 7.76562 11.5743 6.34375ZM7.23833 6.34375C7.23833 5.37109 8.02739 4.58203 9.00005 4.58203C9.9727 4.58203 10.7618 5.37109 10.7618 6.34375C10.7618 7.31641 9.9727 8.10547 9.00005 8.10547C8.02739 8.10547 7.23833 7.31641 7.23833 6.34375Z" fill="#97CBF2"/>
</svg>
