<svg width="18" height="18" viewBox="0 0 18 18" fill="none" xmlns="http://www.w3.org/2000/svg">
<path fill-rule="evenodd" clip-rule="evenodd" d="M12.5833 11.4167C13.5 10.2501 14 8.83342 14 7.33342C14 3.66675 11 0.666748 7.33334 0.666748C3.66667 0.666748 0.666672 3.66675 0.666672 7.33342C0.666672 11.0001 3.66667 14.0001 7.33334 14.0001C8.83334 14.0001 10.3333 13.5001 11.4167 12.5834L15.9167 17.0834L17.0833 15.9167L12.5833 11.4167ZM7.33334 12.3334C4.58334 12.3334 2.33334 10.0834 2.33334 7.33342C2.33334 4.58342 4.58334 2.33341 7.33334 2.33341C10.0833 2.33341 12.3333 4.58342 12.3333 7.33342C12.3333 10.0834 10.0833 12.3334 7.33334 12.3334Z" fill="#97CBF2"/>
</svg>
