<svg width="44" height="38" viewBox="0 0 44 38" fill="none" xmlns="http://www.w3.org/2000/svg">
<path d="M11.9277 27.3139C11.8427 27.3139 11.8002 27.3139 11.7152 27.2696L5.85002 23.7268C5.72252 23.6382 5.63751 23.5053 5.63751 23.3725C5.63751 23.2396 5.72252 23.0625 5.85002 23.0182L9.08013 21.1139C9.29264 20.9811 9.50514 21.0697 9.63265 21.2911C9.76015 21.5125 9.67515 21.7339 9.46264 21.8668L6.82755 23.4168L11.8852 26.4724L13.4578 25.5425C13.6703 25.4096 13.8828 25.4982 14.0103 25.6753C14.1378 25.8967 14.0528 26.1182 13.8828 26.251L12.1402 27.2696C12.0977 27.3139 12.0127 27.3139 11.9277 27.3139Z" fill="url(#paint0_linear)"/>
<path d="M11.9277 27.3139C11.8427 27.3139 11.8002 27.3139 11.7152 27.2696L5.85002 23.7268C5.72252 23.6382 5.63751 23.5053 5.63751 23.3725C5.63751 23.2396 5.72252 23.0625 5.85002 23.0182L9.08013 21.1139C9.29264 20.9811 9.50514 21.0697 9.63265 21.2911C9.76015 21.5125 9.67515 21.7339 9.46264 21.8668L6.82755 23.4168L11.8852 26.4724L13.4578 25.5425C13.6703 25.4096 13.8828 25.4982 14.0103 25.6753C14.1378 25.8967 14.0528 26.1182 13.8828 26.251L12.1402 27.2696C12.0977 27.3139 12.0127 27.3139 11.9277 27.3139Z" fill="white"/>
<path d="M11.9277 34.3551C11.8427 34.3551 11.8002 34.3551 11.7152 34.3108L5.85002 30.768C5.72252 30.6794 5.63751 30.5466 5.63751 30.4137V23.3724C5.63751 23.151 5.80752 22.9739 6.02003 22.9739C6.23253 22.9739 6.40254 23.151 6.40254 23.3724V30.1923L12.0552 33.6022C12.2677 33.7351 12.3103 33.9565 12.1827 34.178C12.2252 34.3108 12.0977 34.3551 11.9277 34.3551Z" fill="url(#paint1_linear)"/>
<path d="M11.9277 34.3551C11.8427 34.3551 11.8002 34.3551 11.7152 34.3108L5.85002 30.768C5.72252 30.6794 5.63751 30.5466 5.63751 30.4137V23.3724C5.63751 23.151 5.80752 22.9739 6.02003 22.9739C6.23253 22.9739 6.40254 23.151 6.40254 23.3724V30.1923L12.0552 33.6022C12.2677 33.7351 12.3103 33.9565 12.1827 34.178C12.2252 34.3108 12.0977 34.3551 11.9277 34.3551Z" fill="white"/>
<path d="M11.9275 34.3551C11.8 34.3551 11.6725 34.2665 11.5875 34.1336C11.4599 33.9122 11.545 33.6908 11.715 33.5579L17.5802 30.0151C17.7927 29.8823 18.0052 29.9709 18.1327 30.148C18.2602 30.3694 18.1752 30.5908 18.0052 30.7237L12.14 34.2665C12.0975 34.3551 12.0125 34.3551 11.9275 34.3551Z" fill="url(#paint2_linear)"/>
<path d="M11.9275 34.3551C11.8 34.3551 11.6725 34.2665 11.5875 34.1336C11.4599 33.9122 11.545 33.6908 11.715 33.5579L17.5802 30.0151C17.7927 29.8823 18.0052 29.9709 18.1327 30.148C18.2602 30.3694 18.1752 30.5908 18.0052 30.7237L12.14 34.2665C12.0975 34.3551 12.0125 34.3551 11.9275 34.3551Z" fill="white"/>
<path d="M11.9285 32.008C11.716 32.008 11.546 31.8309 11.546 31.6094V26.871C11.546 26.6496 11.716 26.4724 11.9285 26.4724C12.141 26.4724 12.311 26.6496 12.311 26.871V31.5651C12.3535 31.8309 12.1835 32.008 11.9285 32.008Z" fill="url(#paint3_linear)"/>
<path d="M11.9285 32.008C11.716 32.008 11.546 31.8309 11.546 31.6094V26.871C11.546 26.6496 11.716 26.4724 11.9285 26.4724C12.141 26.4724 12.311 26.6496 12.311 26.871V31.5651C12.3535 31.8309 12.1835 32.008 11.9285 32.008Z" fill="white"/>
<path d="M25.9964 32.1852C25.9114 32.1852 25.7839 32.1409 25.6989 32.0523C25.1888 31.5652 24.5513 31.2552 23.8288 31.2552C23.1063 31.2552 22.4687 31.5209 21.9587 32.0523C21.7887 32.2295 21.5337 32.2295 21.4062 32.0523L7.08319 17.1283C6.91319 16.9512 6.91319 16.6855 7.08319 16.5526L16.6885 6.54423C16.8585 6.36709 17.1135 6.36709 17.2411 6.54423L31.5641 21.4682C31.7341 21.6454 31.7341 21.9111 31.5641 22.0439C31.054 22.5754 30.799 23.2396 30.799 23.9925C30.799 24.701 31.054 25.4096 31.5641 25.941C31.7341 26.1181 31.7341 26.3839 31.5641 26.5167L29.269 28.9081C29.099 29.0852 28.844 29.0852 28.7165 28.9081C28.5465 28.7309 28.5465 28.4652 28.7165 28.3324L30.7565 26.2067C29.779 24.9225 29.779 23.0625 30.7565 21.7782L16.986 7.38564L7.93322 16.8183L21.7462 31.2109C22.3412 30.7238 23.1063 30.4581 23.8713 30.4581C24.6363 30.4581 25.4013 30.7238 25.9964 31.2109L27.0589 30.1038C27.2289 29.9266 27.4839 29.9266 27.6114 30.1038C27.7814 30.2809 27.7814 30.5466 27.6114 30.6795L26.2514 32.0523C26.1664 32.1409 26.0814 32.1852 25.9964 32.1852Z" fill="url(#paint4_linear)"/>
<path d="M25.9964 32.1852C25.9114 32.1852 25.7839 32.1409 25.6989 32.0523C25.1888 31.5652 24.5513 31.2552 23.8288 31.2552C23.1063 31.2552 22.4687 31.5209 21.9587 32.0523C21.7887 32.2295 21.5337 32.2295 21.4062 32.0523L7.08319 17.1283C6.91319 16.9512 6.91319 16.6855 7.08319 16.5526L16.6885 6.54423C16.8585 6.36709 17.1135 6.36709 17.2411 6.54423L31.5641 21.4682C31.7341 21.6454 31.7341 21.9111 31.5641 22.0439C31.054 22.5754 30.799 23.2396 30.799 23.9925C30.799 24.701 31.054 25.4096 31.5641 25.941C31.7341 26.1181 31.7341 26.3839 31.5641 26.5167L29.269 28.9081C29.099 29.0852 28.844 29.0852 28.7165 28.9081C28.5465 28.7309 28.5465 28.4652 28.7165 28.3324L30.7565 26.2067C29.779 24.9225 29.779 23.0625 30.7565 21.7782L16.986 7.38564L7.93322 16.8183L21.7462 31.2109C22.3412 30.7238 23.1063 30.4581 23.8713 30.4581C24.6363 30.4581 25.4013 30.7238 25.9964 31.2109L27.0589 30.1038C27.2289 29.9266 27.4839 29.9266 27.6114 30.1038C27.7814 30.2809 27.7814 30.5466 27.6114 30.6795L26.2514 32.0523C26.1664 32.1409 26.0814 32.1852 25.9964 32.1852Z" fill="white"/>
<path d="M25.1892 27.801C25.1467 27.801 25.1042 27.801 25.0617 27.7567C24.8067 27.6681 24.5517 27.491 24.3392 27.2695C23.5741 26.4724 23.5741 25.2325 24.3392 24.4354C25.1042 23.6382 26.2942 23.6382 27.0592 24.4354C27.4843 24.8782 27.6968 25.5425 27.6118 26.1624C27.5693 26.3839 27.3568 26.561 27.1442 26.5167C26.9317 26.4724 26.7617 26.251 26.8042 26.0296C26.8467 25.6753 26.7617 25.2768 26.5067 25.0111C26.0817 24.5682 25.3592 24.5682 24.9342 25.0111C24.5092 25.4539 24.5092 26.2067 24.9342 26.6496C25.0617 26.7824 25.1892 26.871 25.3592 26.9153C25.5717 27.0038 25.6992 27.2253 25.6142 27.4467C25.4867 27.6681 25.3167 27.801 25.1892 27.801Z" fill="url(#paint5_linear)"/>
<path d="M25.1892 27.801C25.1467 27.801 25.1042 27.801 25.0617 27.7567C24.8067 27.6681 24.5517 27.491 24.3392 27.2695C23.5741 26.4724 23.5741 25.2325 24.3392 24.4354C25.1042 23.6382 26.2942 23.6382 27.0592 24.4354C27.4843 24.8782 27.6968 25.5425 27.6118 26.1624C27.5693 26.3839 27.3568 26.561 27.1442 26.5167C26.9317 26.4724 26.7617 26.251 26.8042 26.0296C26.8467 25.6753 26.7617 25.2768 26.5067 25.0111C26.0817 24.5682 25.3592 24.5682 24.9342 25.0111C24.5092 25.4539 24.5092 26.2067 24.9342 26.6496C25.0617 26.7824 25.1892 26.871 25.3592 26.9153C25.5717 27.0038 25.6992 27.2253 25.6142 27.4467C25.4867 27.6681 25.3167 27.801 25.1892 27.801Z" fill="white"/>
<path d="M16.3904 21.8667C16.3054 21.8667 16.2629 21.8667 16.1779 21.8224C15.9654 21.6896 15.9229 21.4682 16.0079 21.2467L19.4505 14.7369C19.578 14.5155 19.7905 14.4712 20.003 14.5597C20.2155 14.6926 20.258 14.914 20.173 15.1354L16.7304 21.6453C16.6879 21.7782 16.5604 21.8667 16.3904 21.8667Z" fill="url(#paint6_linear)"/>
<path d="M16.3904 21.8667C16.3054 21.8667 16.2629 21.8667 16.1779 21.8224C15.9654 21.6896 15.9229 21.4682 16.0079 21.2467L19.4505 14.7369C19.578 14.5155 19.7905 14.4712 20.003 14.5597C20.2155 14.6926 20.258 14.914 20.173 15.1354L16.7304 21.6453C16.6879 21.7782 16.5604 21.8667 16.3904 21.8667Z" fill="white"/>
<path d="M20.5134 21.8668C19.6634 21.8668 18.9834 21.1582 18.9834 20.2725V19.4754C18.9834 18.5897 19.6634 17.8811 20.5134 17.8811C21.3635 17.8811 22.0435 18.5897 22.0435 19.4754V20.2725C22.0435 21.1582 21.3635 21.8668 20.5134 21.8668ZM20.5134 18.7225C20.1309 18.7225 19.7909 19.0768 19.7909 19.4754V20.2725C19.7909 20.6711 20.1309 21.0254 20.5134 21.0254C20.896 21.0254 21.236 20.6711 21.236 20.2725V19.4754C21.236 19.0768 20.896 18.7225 20.5134 18.7225Z" fill="url(#paint7_linear)"/>
<path d="M20.5134 21.8668C19.6634 21.8668 18.9834 21.1582 18.9834 20.2725V19.4754C18.9834 18.5897 19.6634 17.8811 20.5134 17.8811C21.3635 17.8811 22.0435 18.5897 22.0435 19.4754V20.2725C22.0435 21.1582 21.3635 21.8668 20.5134 21.8668ZM20.5134 18.7225C20.1309 18.7225 19.7909 19.0768 19.7909 19.4754V20.2725C19.7909 20.6711 20.1309 21.0254 20.5134 21.0254C20.896 21.0254 21.236 20.6711 21.236 20.2725V19.4754C21.236 19.0768 20.896 18.7225 20.5134 18.7225Z" fill="white"/>
<path d="M15.8385 18.4567C14.9885 18.4567 14.3085 17.7482 14.3085 16.8625V16.0653C14.3085 15.1796 14.9885 14.4711 15.8385 14.4711C16.6886 14.4711 17.3686 15.1796 17.3686 16.0653V16.8625C17.3261 17.7482 16.6461 18.4567 15.8385 18.4567ZM15.8385 15.3568C15.456 15.3568 15.116 15.7111 15.116 16.1096V16.9068C15.116 17.3053 15.456 17.6596 15.8385 17.6596C16.221 17.6596 16.561 17.3053 16.561 16.9068V16.1096C16.561 15.6668 16.221 15.3568 15.8385 15.3568Z" fill="url(#paint8_linear)"/>
<path d="M15.8385 18.4567C14.9885 18.4567 14.3085 17.7482 14.3085 16.8625V16.0653C14.3085 15.1796 14.9885 14.4711 15.8385 14.4711C16.6886 14.4711 17.3686 15.1796 17.3686 16.0653V16.8625C17.3261 17.7482 16.6461 18.4567 15.8385 18.4567ZM15.8385 15.3568C15.456 15.3568 15.116 15.7111 15.116 16.1096V16.9068C15.116 17.3053 15.456 17.6596 15.8385 17.6596C16.221 17.6596 16.561 17.3053 16.561 16.9068V16.1096C16.561 15.6668 16.221 15.3568 15.8385 15.3568Z" fill="white"/>
<path d="M39.1717 30.2365C38.9592 30.2365 38.7892 30.0594 38.7892 29.838C38.7892 29.6165 38.9592 29.3951 39.1717 29.3951C40.4892 29.3508 41.8068 28.4652 42.4868 27.0923C42.5718 26.8709 42.8268 26.8266 43.0393 26.9152C43.2518 27.0038 43.2943 27.2695 43.2093 27.4909C42.4018 29.0851 40.8292 30.1922 39.1717 30.2365Z" fill="url(#paint9_linear)"/>
<path d="M39.1717 30.2365C38.9592 30.2365 38.7892 30.0594 38.7892 29.838C38.7892 29.6165 38.9592 29.3951 39.1717 29.3951C40.4892 29.3508 41.8068 28.4652 42.4868 27.0923C42.5718 26.8709 42.8268 26.8266 43.0393 26.9152C43.2518 27.0038 43.2943 27.2695 43.2093 27.4909C42.4018 29.0851 40.8292 30.1922 39.1717 30.2365Z" fill="white"/>
<path d="M34.1976 33.2037C32.9226 33.2037 31.6051 32.8051 30.415 32.0966C27.6099 30.3695 25.3999 26.2509 25.3148 26.0738C25.2298 25.8524 25.2723 25.6309 25.4849 25.4981C25.6974 25.4095 25.9099 25.4538 26.0374 25.6752C26.0799 25.7195 28.2049 29.7938 30.7975 31.3437C32.1576 32.1852 33.6876 32.4952 35.1327 32.2737C36.6627 32.008 37.9803 31.1223 38.7028 29.838C39.4678 28.5095 39.5103 26.7824 38.8303 25.5424C38.4478 24.8781 37.8953 24.391 37.3002 24.2138C36.6627 24.0367 35.9402 24.2138 35.6002 24.7009C35.1327 25.3209 35.3027 26.2952 35.5577 26.9152C36.0252 27.9338 36.9177 28.7752 38.0228 29.1295C38.2353 29.218 38.3628 29.4395 38.2778 29.6609C38.1928 29.8823 37.9803 30.0152 37.7678 29.9266C36.4502 29.528 35.3452 28.5095 34.7927 27.2695C34.4101 26.3838 34.2401 25.1438 34.9202 24.2138C35.4727 23.461 36.5352 23.151 37.4702 23.4167C38.2778 23.6381 39.0003 24.3024 39.4678 25.1438C40.3178 26.6938 40.2753 28.6866 39.3403 30.3252C38.4903 31.7866 36.9177 32.8494 35.1752 33.1594C34.8777 33.1594 34.5376 33.2037 34.1976 33.2037Z" fill="url(#paint10_linear)"/>
<path d="M34.1976 33.2037C32.9226 33.2037 31.6051 32.8051 30.415 32.0966C27.6099 30.3695 25.3999 26.2509 25.3148 26.0738C25.2298 25.8524 25.2723 25.6309 25.4849 25.4981C25.6974 25.4095 25.9099 25.4538 26.0374 25.6752C26.0799 25.7195 28.2049 29.7938 30.7975 31.3437C32.1576 32.1852 33.6876 32.4952 35.1327 32.2737C36.6627 32.008 37.9803 31.1223 38.7028 29.838C39.4678 28.5095 39.5103 26.7824 38.8303 25.5424C38.4478 24.8781 37.8953 24.391 37.3002 24.2138C36.6627 24.0367 35.9402 24.2138 35.6002 24.7009C35.1327 25.3209 35.3027 26.2952 35.5577 26.9152C36.0252 27.9338 36.9177 28.7752 38.0228 29.1295C38.2353 29.218 38.3628 29.4395 38.2778 29.6609C38.1928 29.8823 37.9803 30.0152 37.7678 29.9266C36.4502 29.528 35.3452 28.5095 34.7927 27.2695C34.4101 26.3838 34.2401 25.1438 34.9202 24.2138C35.4727 23.461 36.5352 23.151 37.4702 23.4167C38.2778 23.6381 39.0003 24.3024 39.4678 25.1438C40.3178 26.6938 40.2753 28.6866 39.3403 30.3252C38.4903 31.7866 36.9177 32.8494 35.1752 33.1594C34.8777 33.1594 34.5376 33.2037 34.1976 33.2037Z" fill="white"/>
<path d="M19.1956 37.4109H3.98011C2.19505 37.4109 0.75 35.9052 0.75 34.0452V3.57714C0.75 1.76145 2.15255 0.300049 3.89511 0.300049H18.8981C20.6407 0.300049 22.0432 1.76145 22.0432 3.57714V8.66992C22.0432 8.89134 21.8732 9.06848 21.6607 9.06848C21.4482 9.06848 21.2782 8.89134 21.2782 8.66992V3.57714C21.2782 2.2043 20.2157 1.14146 18.9406 1.14146H3.89511C2.57756 1.14146 1.55753 2.24859 1.55753 3.57714V34.0009C1.55753 35.4181 2.66256 36.5252 3.98011 36.5252H19.1531C20.3007 36.5252 21.1932 35.5509 21.1932 34.3995V33.3367C21.1932 33.1152 21.3632 32.9381 21.5757 32.9381C21.7882 32.9381 21.9582 33.1152 21.9582 33.3367V34.3995C22.0432 36.0823 20.7682 37.4109 19.1956 37.4109Z" fill="url(#paint11_linear)"/>
<path d="M19.1956 37.4109H3.98011C2.19505 37.4109 0.75 35.9052 0.75 34.0452V3.57714C0.75 1.76145 2.15255 0.300049 3.89511 0.300049H18.8981C20.6407 0.300049 22.0432 1.76145 22.0432 3.57714V8.66992C22.0432 8.89134 21.8732 9.06848 21.6607 9.06848C21.4482 9.06848 21.2782 8.89134 21.2782 8.66992V3.57714C21.2782 2.2043 20.2157 1.14146 18.9406 1.14146H3.89511C2.57756 1.14146 1.55753 2.24859 1.55753 3.57714V34.0009C1.55753 35.4181 2.66256 36.5252 3.98011 36.5252H19.1531C20.3007 36.5252 21.1932 35.5509 21.1932 34.3995V33.3367C21.1932 33.1152 21.3632 32.9381 21.5757 32.9381C21.7882 32.9381 21.9582 33.1152 21.9582 33.3367V34.3995C22.0432 36.0823 20.7682 37.4109 19.1956 37.4109Z" fill="white"/>
<path d="M14.7321 4.10855H8.10188C7.03934 4.10855 6.23181 3.22285 6.23181 2.16001V0.698613C6.23181 0.477188 6.40182 0.300049 6.61433 0.300049C6.82683 0.300049 6.99684 0.477188 6.99684 0.698613V2.11573C6.99684 2.73572 7.46435 3.26714 8.10188 3.26714H14.7321C15.3271 3.26714 15.8372 2.78 15.8372 2.11573V0.698613C15.8372 0.477188 16.0072 0.300049 16.2197 0.300049C16.4322 0.300049 16.6022 0.477188 16.6022 0.698613V2.11573C16.6022 3.22285 15.7521 4.10855 14.7321 4.10855Z" fill="url(#paint12_linear)"/>
<path d="M14.7321 4.10855H8.10188C7.03934 4.10855 6.23181 3.22285 6.23181 2.16001V0.698613C6.23181 0.477188 6.40182 0.300049 6.61433 0.300049C6.82683 0.300049 6.99684 0.477188 6.99684 0.698613V2.11573C6.99684 2.73572 7.46435 3.26714 8.10188 3.26714H14.7321C15.3271 3.26714 15.8372 2.78 15.8372 2.11573V0.698613C15.8372 0.477188 16.0072 0.300049 16.2197 0.300049C16.4322 0.300049 16.6022 0.477188 16.6022 0.698613V2.11573C16.6022 3.22285 15.7521 4.10855 14.7321 4.10855Z" fill="white"/>
<defs>
<linearGradient id="paint0_linear" x1="16.5288" y1="18.4667" x2="15.86" y2="31.9534" gradientUnits="userSpaceOnUse">
<stop offset="0.0597382" stop-color="#6BE3DF"/>
<stop offset="1" stop-color="#FFB3EA"/>
</linearGradient>
<linearGradient id="paint1_linear" x1="14.1822" y1="18.2762" x2="11.3963" y2="42.5273" gradientUnits="userSpaceOnUse">
<stop offset="0.0597382" stop-color="#6BE3DF"/>
<stop offset="1" stop-color="#FFB3EA"/>
</linearGradient>
<linearGradient id="paint2_linear" x1="20.1367" y1="28.1334" x2="19.7181" y2="37.6226" gradientUnits="userSpaceOnUse">
<stop offset="0.0597382" stop-color="#6BE3DF"/>
<stop offset="1" stop-color="#FFB3EA"/>
</linearGradient>
<linearGradient id="paint3_linear" x1="12.5423" y1="24.1875" x2="7.88498" y2="33.9067" gradientUnits="userSpaceOnUse">
<stop offset="0.0597382" stop-color="#6BE3DF"/>
<stop offset="1" stop-color="#FFB3EA"/>
</linearGradient>
<linearGradient id="paint4_linear" x1="38.8978" y1="-4.22703" x2="35.0443" y2="51.1483" gradientUnits="userSpaceOnUse">
<stop offset="0.0597382" stop-color="#6BE3DF"/>
<stop offset="1" stop-color="#FFB3EA"/>
</linearGradient>
<linearGradient id="paint5_linear" x1="28.7562" y1="22.2016" x2="28.1729" y2="30.7183" gradientUnits="userSpaceOnUse">
<stop offset="0.0597382" stop-color="#6BE3DF"/>
<stop offset="1" stop-color="#FFB3EA"/>
</linearGradient>
<linearGradient id="paint6_linear" x1="21.4514" y1="11.4833" x2="19.6417" y2="27.1417" gradientUnits="userSpaceOnUse">
<stop offset="0.0597382" stop-color="#6BE3DF"/>
<stop offset="1" stop-color="#FFB3EA"/>
</linearGradient>
<linearGradient id="paint7_linear" x1="22.935" y1="16.236" x2="22.1921" y2="24.7761" gradientUnits="userSpaceOnUse">
<stop offset="0.0597382" stop-color="#6BE3DF"/>
<stop offset="1" stop-color="#FFB3EA"/>
</linearGradient>
<linearGradient id="paint8_linear" x1="18.2601" y1="12.8259" x2="17.5172" y2="21.3661" gradientUnits="userSpaceOnUse">
<stop offset="0.0597382" stop-color="#6BE3DF"/>
<stop offset="1" stop-color="#FFB3EA"/>
</linearGradient>
<linearGradient id="paint9_linear" x1="44.55" y1="25.4839" x2="44.1852" y2="32.7283" gradientUnits="userSpaceOnUse">
<stop offset="0.0597382" stop-color="#6BE3DF"/>
<stop offset="1" stop-color="#FFB3EA"/>
</linearGradient>
<linearGradient id="paint10_linear" x1="44.387" y1="19.2446" x2="43.4378" y2="40.534" gradientUnits="userSpaceOnUse">
<stop offset="0.0597382" stop-color="#6BE3DF"/>
<stop offset="1" stop-color="#FFB3EA"/>
</linearGradient>
<linearGradient id="paint11_linear" x1="28.2465" y1="-15.0178" x2="19.0453" y2="64.0304" gradientUnits="userSpaceOnUse">
<stop offset="0.0597382" stop-color="#6BE3DF"/>
<stop offset="1" stop-color="#FFB3EA"/>
</linearGradient>
<linearGradient id="paint12_linear" x1="19.6234" y1="-1.27195" x2="19.4218" y2="6.94535" gradientUnits="userSpaceOnUse">
<stop offset="0.0597382" stop-color="#6BE3DF"/>
<stop offset="1" stop-color="#FFB3EA"/>
</linearGradient>
</defs>
</svg>
