<svg width="44" height="46" viewBox="0 0 44 46" fill="none" xmlns="http://www.w3.org/2000/svg">
<path d="M43.25 23.0417C43.25 21.576 42.9398 20.4069 42.4 19.6806C42.5694 19.1368 42.6259 18.5617 42.5658 17.9934C42.4425 16.3638 41.6435 14.1718 40.3983 13.2817C40.4038 12.9832 40.3709 12.6853 40.3005 12.396C39.9265 10.7708 38.269 8.36178 36.5988 7.84367C36.5704 7.73841 36.5364 7.63491 36.4967 7.53368C35.7913 5.76235 33.203 3.8803 31.4605 3.8803H31.3755C30.4958 2.5518 28.0945 1.60413 26.4243 1.60413C26.0191 1.59227 25.615 1.6537 25.23 1.78569C24.2483 0.99302 22.68 0.900024 22 0.900024C21.32 0.900024 19.7518 0.99302 18.77 1.78569C18.3857 1.64919 17.9817 1.58327 17.5758 1.59085C15.9055 1.59085 13.5042 2.5208 12.6245 3.86701H12.5395C10.797 3.86701 8.20875 5.74463 7.50325 7.5204C7.46362 7.62162 7.42956 7.72512 7.40125 7.83038C5.731 8.3485 4.0735 10.7575 3.6995 12.3827C3.62902 12.6721 3.59614 12.9699 3.60175 13.2684C2.36075 14.1541 1.5575 16.3682 1.43425 17.9801C1.3723 18.5528 1.42882 19.1326 1.6 19.6806C1.06025 20.4113 0.75 21.5804 0.75 23.0417C0.75 24.5031 1.06025 25.6766 1.6 26.4073C1.43051 26.9511 1.37401 27.5262 1.43425 28.0945C1.5575 29.7197 2.3565 31.8984 3.60175 32.7841C3.59614 33.0826 3.62902 33.3804 3.6995 33.6698C4.0735 35.295 5.731 37.704 7.40125 38.2221C7.42958 38.3274 7.46364 38.4309 7.50325 38.5321C8.20875 40.3034 10.797 42.1855 12.5395 42.1855H12.6245C13.5042 43.514 15.9055 44.4616 17.5758 44.4616C17.9799 44.4793 18.384 44.4239 18.77 44.2978C19.7518 45.0905 21.32 45.1835 22 45.1835C22.68 45.1835 24.2483 45.0905 25.23 44.2978C25.6142 44.4344 26.0183 44.5003 26.4243 44.4926C28.0945 44.4926 30.4958 43.5627 31.3755 42.2165H31.4605C33.203 42.2165 35.7913 40.3389 36.4967 38.5631C36.5363 38.4618 36.5704 38.3583 36.5988 38.2531C38.269 37.735 39.9265 35.326 40.3005 33.7008C40.371 33.4114 40.4039 33.1135 40.3983 32.8151C41.6393 31.9294 42.4425 29.7153 42.5658 28.1033C42.626 27.5351 42.5695 26.9599 42.4 26.4161C42.9398 25.6766 43.25 24.5075 43.25 23.0417ZM38.8768 32.0047C40.6533 32.9479 36.8028 38.4701 35.3918 36.9999C36.8028 38.4701 31.503 42.4822 30.5978 40.6311C31.5073 42.4822 25.2768 44.5901 24.975 42.5265C25.2853 44.5768 18.736 44.5768 19.0462 42.5265C18.736 44.5768 12.5055 42.4689 13.4108 40.6178C12.5055 42.4689 7.20575 38.4568 8.61675 36.9866C7.20575 38.4568 3.35525 32.9347 5.13175 31.9914C3.3425 32.9479 1.3195 26.456 3.3 26.1416C1.33225 26.4649 1.33225 19.6408 3.3 19.964C1.33225 19.6408 3.35525 13.1488 5.13175 14.0921C3.35525 13.1488 7.20575 7.62668 8.61675 9.09689C7.20575 7.62668 12.5055 3.6146 13.4108 5.46565C12.4928 3.60131 18.7233 1.49342 19.025 3.55703C18.7148 1.50671 25.264 1.50671 24.9537 3.55703C25.264 1.50671 31.4945 3.6146 30.5893 5.46565C31.4945 3.6146 36.7943 7.62668 35.3833 9.09689C36.7943 7.62668 40.6448 13.1488 38.8683 14.0921C40.6575 13.1355 42.6805 19.6275 40.7 19.9419C42.6678 19.6186 42.6678 26.4427 40.7 26.1194C42.6805 26.456 40.6575 32.9479 38.8768 32.0047Z" fill="url(#paint0_linear)"/>
<path d="M43.25 23.0417C43.25 21.576 42.9398 20.4069 42.4 19.6806C42.5694 19.1368 42.6259 18.5617 42.5658 17.9934C42.4425 16.3638 41.6435 14.1718 40.3983 13.2817C40.4038 12.9832 40.3709 12.6853 40.3005 12.396C39.9265 10.7708 38.269 8.36178 36.5988 7.84367C36.5704 7.73841 36.5364 7.63491 36.4967 7.53368C35.7913 5.76235 33.203 3.8803 31.4605 3.8803H31.3755C30.4958 2.5518 28.0945 1.60413 26.4243 1.60413C26.0191 1.59227 25.615 1.6537 25.23 1.78569C24.2483 0.99302 22.68 0.900024 22 0.900024C21.32 0.900024 19.7518 0.99302 18.77 1.78569C18.3857 1.64919 17.9817 1.58327 17.5758 1.59085C15.9055 1.59085 13.5042 2.5208 12.6245 3.86701H12.5395C10.797 3.86701 8.20875 5.74463 7.50325 7.5204C7.46362 7.62162 7.42956 7.72512 7.40125 7.83038C5.731 8.3485 4.0735 10.7575 3.6995 12.3827C3.62902 12.6721 3.59614 12.9699 3.60175 13.2684C2.36075 14.1541 1.5575 16.3682 1.43425 17.9801C1.3723 18.5528 1.42882 19.1326 1.6 19.6806C1.06025 20.4113 0.75 21.5804 0.75 23.0417C0.75 24.5031 1.06025 25.6766 1.6 26.4073C1.43051 26.9511 1.37401 27.5262 1.43425 28.0945C1.5575 29.7197 2.3565 31.8984 3.60175 32.7841C3.59614 33.0826 3.62902 33.3804 3.6995 33.6698C4.0735 35.295 5.731 37.704 7.40125 38.2221C7.42958 38.3274 7.46364 38.4309 7.50325 38.5321C8.20875 40.3034 10.797 42.1855 12.5395 42.1855H12.6245C13.5042 43.514 15.9055 44.4616 17.5758 44.4616C17.9799 44.4793 18.384 44.4239 18.77 44.2978C19.7518 45.0905 21.32 45.1835 22 45.1835C22.68 45.1835 24.2483 45.0905 25.23 44.2978C25.6142 44.4344 26.0183 44.5003 26.4243 44.4926C28.0945 44.4926 30.4958 43.5627 31.3755 42.2165H31.4605C33.203 42.2165 35.7913 40.3389 36.4967 38.5631C36.5363 38.4618 36.5704 38.3583 36.5988 38.2531C38.269 37.735 39.9265 35.326 40.3005 33.7008C40.371 33.4114 40.4039 33.1135 40.3983 32.8151C41.6393 31.9294 42.4425 29.7153 42.5658 28.1033C42.626 27.5351 42.5695 26.9599 42.4 26.4161C42.9398 25.6766 43.25 24.5075 43.25 23.0417ZM38.8768 32.0047C40.6533 32.9479 36.8028 38.4701 35.3918 36.9999C36.8028 38.4701 31.503 42.4822 30.5978 40.6311C31.5073 42.4822 25.2768 44.5901 24.975 42.5265C25.2853 44.5768 18.736 44.5768 19.0462 42.5265C18.736 44.5768 12.5055 42.4689 13.4108 40.6178C12.5055 42.4689 7.20575 38.4568 8.61675 36.9866C7.20575 38.4568 3.35525 32.9347 5.13175 31.9914C3.3425 32.9479 1.3195 26.456 3.3 26.1416C1.33225 26.4649 1.33225 19.6408 3.3 19.964C1.33225 19.6408 3.35525 13.1488 5.13175 14.0921C3.35525 13.1488 7.20575 7.62668 8.61675 9.09689C7.20575 7.62668 12.5055 3.6146 13.4108 5.46565C12.4928 3.60131 18.7233 1.49342 19.025 3.55703C18.7148 1.50671 25.264 1.50671 24.9537 3.55703C25.264 1.50671 31.4945 3.6146 30.5893 5.46565C31.4945 3.6146 36.7943 7.62668 35.3833 9.09689C36.7943 7.62668 40.6448 13.1488 38.8683 14.0921C40.6575 13.1355 42.6805 19.6275 40.7 19.9419C42.6678 19.6186 42.6678 26.4427 40.7 26.1194C42.6805 26.456 40.6575 32.9479 38.8768 32.0047Z" fill="white"/>
<path d="M22 5.32837C18.6377 5.32837 15.3509 6.36724 12.5553 8.31361C9.75968 10.26 7.58074 13.0264 6.29406 16.2631C5.00737 19.4998 4.67071 23.0614 5.32666 26.4975C5.98261 29.9335 7.6017 33.0897 9.97919 35.567C12.3567 38.0443 15.3858 39.7313 18.6835 40.4148C21.9811 41.0982 25.3993 40.7475 28.5056 39.4068C31.612 38.0661 34.267 35.7957 36.135 32.8828C38.003 29.9698 39 26.5451 39 23.0417C39 18.3439 37.2089 13.8384 34.0208 10.5165C30.8327 7.19459 26.5087 5.32837 22 5.32837ZM22 39.648C18.8479 39.648 15.7665 38.6741 13.1456 36.8494C10.5247 35.0246 8.48195 32.4311 7.27568 29.3967C6.06941 26.3623 5.75379 23.0233 6.36874 19.802C6.98369 16.5807 8.50159 13.6218 10.7305 11.2993C12.9594 8.97689 15.7992 7.3953 18.8908 6.75454C21.9823 6.11378 25.1868 6.44264 28.099 7.69953C31.0112 8.95642 33.5003 11.0849 35.2515 13.8158C37.0028 16.5467 37.9375 19.7573 37.9375 23.0417C37.933 27.4446 36.2524 31.6657 33.2645 34.779C30.2767 37.8923 26.2255 39.6433 22 39.648Z" fill="url(#paint1_linear)"/>
<path d="M22 5.32837C18.6377 5.32837 15.3509 6.36724 12.5553 8.31361C9.75968 10.26 7.58074 13.0264 6.29406 16.2631C5.00737 19.4998 4.67071 23.0614 5.32666 26.4975C5.98261 29.9335 7.6017 33.0897 9.97919 35.567C12.3567 38.0443 15.3858 39.7313 18.6835 40.4148C21.9811 41.0982 25.3993 40.7475 28.5056 39.4068C31.612 38.0661 34.267 35.7957 36.135 32.8828C38.003 29.9698 39 26.5451 39 23.0417C39 18.3439 37.2089 13.8384 34.0208 10.5165C30.8327 7.19459 26.5087 5.32837 22 5.32837ZM22 39.648C18.8479 39.648 15.7665 38.6741 13.1456 36.8494C10.5247 35.0246 8.48195 32.4311 7.27568 29.3967C6.06941 26.3623 5.75379 23.0233 6.36874 19.802C6.98369 16.5807 8.50159 13.6218 10.7305 11.2993C12.9594 8.97689 15.7992 7.3953 18.8908 6.75454C21.9823 6.11378 25.1868 6.44264 28.099 7.69953C31.0112 8.95642 33.5003 11.0849 35.2515 13.8158C37.0028 16.5467 37.9375 19.7573 37.9375 23.0417C37.933 27.4446 36.2524 31.6657 33.2645 34.779C30.2767 37.8923 26.2255 39.6433 22 39.648Z" fill="white"/>
<path d="M29.4902 14.4619L13.764 30.848L14.5062 31.6215L30.2325 15.2354L29.4902 14.4619Z" fill="url(#paint2_linear)"/>
<path d="M29.4902 14.4619L13.764 30.848L14.5062 31.6215L30.2325 15.2354L29.4902 14.4619Z" fill="white"/>
<path d="M29.4375 23.0417C28.8071 23.0417 28.1908 23.2365 27.6666 23.6015C27.1424 23.9664 26.7339 24.4851 26.4926 25.092C26.2514 25.6989 26.1883 26.3667 26.3112 27.011C26.4342 27.6552 26.7378 28.247 27.1836 28.7115C27.6294 29.176 28.1973 29.4923 28.8156 29.6205C29.434 29.7486 30.0749 29.6828 30.6573 29.4315C31.2397 29.1801 31.7376 28.7544 32.0878 28.2082C32.4381 27.662 32.625 27.0199 32.625 26.363C32.6239 25.4825 32.2877 24.6384 31.6902 24.0158C31.0926 23.3932 30.2825 23.0429 29.4375 23.0417ZM29.4375 28.5772C29.0172 28.5772 28.6064 28.4473 28.2569 28.204C27.9075 27.9607 27.6351 27.6149 27.4743 27.2103C27.3134 26.8058 27.2713 26.3606 27.3533 25.9311C27.4353 25.5015 27.6377 25.107 27.9349 24.7974C28.2321 24.4877 28.6107 24.2768 29.0229 24.1914C29.4351 24.1059 29.8624 24.1498 30.2507 24.3174C30.639 24.485 30.9709 24.7688 31.2044 25.1329C31.4379 25.497 31.5625 25.9251 31.5625 26.363C31.5625 26.9503 31.3386 27.5134 30.9401 27.9287C30.5416 28.3439 30.0011 28.5772 29.4375 28.5772Z" fill="url(#paint3_linear)"/>
<path d="M29.4375 23.0417C28.8071 23.0417 28.1908 23.2365 27.6666 23.6015C27.1424 23.9664 26.7339 24.4851 26.4926 25.092C26.2514 25.6989 26.1883 26.3667 26.3112 27.011C26.4342 27.6552 26.7378 28.247 27.1836 28.7115C27.6294 29.176 28.1973 29.4923 28.8156 29.6205C29.434 29.7486 30.0749 29.6828 30.6573 29.4315C31.2397 29.1801 31.7376 28.7544 32.0878 28.2082C32.4381 27.662 32.625 27.0199 32.625 26.363C32.6239 25.4825 32.2877 24.6384 31.6902 24.0158C31.0926 23.3932 30.2825 23.0429 29.4375 23.0417ZM29.4375 28.5772C29.0172 28.5772 28.6064 28.4473 28.2569 28.204C27.9075 27.9607 27.6351 27.6149 27.4743 27.2103C27.3134 26.8058 27.2713 26.3606 27.3533 25.9311C27.4353 25.5015 27.6377 25.107 27.9349 24.7974C28.2321 24.4877 28.6107 24.2768 29.0229 24.1914C29.4351 24.1059 29.8624 24.1498 30.2507 24.3174C30.639 24.485 30.9709 24.7688 31.2044 25.1329C31.4379 25.497 31.5625 25.9251 31.5625 26.363C31.5625 26.9503 31.3386 27.5134 30.9401 27.9287C30.5416 28.3439 30.0011 28.5772 29.4375 28.5772Z" fill="white"/>
<path d="M16.6875 20.8275C17.3179 20.8275 17.9342 20.6327 18.4584 20.2677C18.9826 19.9028 19.3911 19.3841 19.6324 18.7772C19.8736 18.1703 19.9367 17.5025 19.8138 16.8583C19.6908 16.214 19.3872 15.6222 18.9414 15.1577C18.4956 14.6932 17.9277 14.3769 17.3093 14.2488C16.691 14.1206 16.0501 14.1864 15.4677 14.4378C14.8853 14.6891 14.3874 15.1148 14.0372 15.661C13.6869 16.2072 13.5 16.8493 13.5 17.5062C13.5011 18.3867 13.8373 19.2308 14.4348 19.8534C15.0324 20.476 15.8425 20.8263 16.6875 20.8275ZM16.6875 15.292C17.1078 15.292 17.5186 15.4219 17.8681 15.6652C18.2175 15.9085 18.4899 16.2543 18.6507 16.6589C18.8116 17.0635 18.8537 17.5087 18.7717 17.9382C18.6897 18.3677 18.4873 18.7622 18.1901 19.0719C17.8929 19.3815 17.5143 19.5924 17.1021 19.6778C16.6899 19.7633 16.2626 19.7194 15.8743 19.5518C15.486 19.3843 15.1541 19.1005 14.9206 18.7363C14.6871 18.3722 14.5625 17.9441 14.5625 17.5062C14.5625 16.919 14.7864 16.3558 15.1849 15.9405C15.5834 15.5253 16.1239 15.292 16.6875 15.292Z" fill="url(#paint4_linear)"/>
<path d="M16.6875 20.8275C17.3179 20.8275 17.9342 20.6327 18.4584 20.2677C18.9826 19.9028 19.3911 19.3841 19.6324 18.7772C19.8736 18.1703 19.9367 17.5025 19.8138 16.8583C19.6908 16.214 19.3872 15.6222 18.9414 15.1577C18.4956 14.6932 17.9277 14.3769 17.3093 14.2488C16.691 14.1206 16.0501 14.1864 15.4677 14.4378C14.8853 14.6891 14.3874 15.1148 14.0372 15.661C13.6869 16.2072 13.5 16.8493 13.5 17.5062C13.5011 18.3867 13.8373 19.2308 14.4348 19.8534C15.0324 20.476 15.8425 20.8263 16.6875 20.8275ZM16.6875 15.292C17.1078 15.292 17.5186 15.4219 17.8681 15.6652C18.2175 15.9085 18.4899 16.2543 18.6507 16.6589C18.8116 17.0635 18.8537 17.5087 18.7717 17.9382C18.6897 18.3677 18.4873 18.7622 18.1901 19.0719C17.8929 19.3815 17.5143 19.5924 17.1021 19.6778C16.6899 19.7633 16.2626 19.7194 15.8743 19.5518C15.486 19.3843 15.1541 19.1005 14.9206 18.7363C14.6871 18.3722 14.5625 17.9441 14.5625 17.5062C14.5625 16.919 14.7864 16.3558 15.1849 15.9405C15.5834 15.5253 16.1239 15.292 16.6875 15.292Z" fill="white"/>
<defs>
<linearGradient id="paint0_linear" x1="55.6314" y1="-17.3784" x2="49.0104" y2="77.7652" gradientUnits="userSpaceOnUse">
<stop offset="0.0597382" stop-color="#6BE3DF"/>
<stop offset="1" stop-color="#FFB3EA"/>
</linearGradient>
<linearGradient id="paint1_linear" x1="48.9051" y1="-9.2944" x2="43.6083" y2="66.8205" gradientUnits="userSpaceOnUse">
<stop offset="0.0597382" stop-color="#6BE3DF"/>
<stop offset="1" stop-color="#FFB3EA"/>
</linearGradient>
<linearGradient id="paint2_linear" x1="33.7653" y1="9.36896" x2="35.4289" y2="10.9756" gradientUnits="userSpaceOnUse">
<stop offset="0.0597382" stop-color="#6BE3DF"/>
<stop offset="1" stop-color="#FFB3EA"/>
</linearGradient>
<linearGradient id="paint3_linear" x1="34.4822" y1="20.3" x2="33.4891" y2="34.5716" gradientUnits="userSpaceOnUse">
<stop offset="0.0597382" stop-color="#6BE3DF"/>
<stop offset="1" stop-color="#FFB3EA"/>
</linearGradient>
<linearGradient id="paint4_linear" x1="21.7322" y1="11.4432" x2="20.7391" y2="25.7147" gradientUnits="userSpaceOnUse">
<stop offset="0.0597382" stop-color="#6BE3DF"/>
<stop offset="1" stop-color="#FFB3EA"/>
</linearGradient>
</defs>
</svg>
