<svg width="14" height="12" viewBox="0 0 14 12" fill="none" xmlns="http://www.w3.org/2000/svg">
<path d="M13.2406 0.3115C13.0763 0.110605 12.8303 0 12.5477 0C12.3941 0 12.2314 0.0323196 12.0642 0.0962406L0.680477 4.44174C0.0763569 4.67229 -0.00500638 5.01826 0.000226311 5.20397C0.005459 5.38968 0.106317 5.73052 0.722544 5.9266C0.726238 5.92773 0.729931 5.92885 0.733625 5.92988L3.09491 6.60562L4.37189 10.2572C4.54601 10.755 4.93682 11.0643 5.39196 11.0643C5.67894 11.0643 5.96119 10.944 6.20826 10.7167L7.6688 9.37187L9.78722 11.0776C9.78743 11.0778 9.78773 11.0779 9.78794 11.0781L9.80805 11.0943C9.8099 11.0958 9.81184 11.0973 9.81369 11.0988C10.0492 11.2814 10.3062 11.3778 10.5572 11.3779H10.5574C11.0479 11.3779 11.4385 11.0148 11.5523 10.453L13.4175 1.24302C13.4924 0.873348 13.4296 0.542559 13.2406 0.3115ZM3.88484 6.47726L8.44047 4.14994L5.60383 7.16408C5.55735 7.21343 5.52442 7.27386 5.50821 7.33963L4.96124 9.55522L3.88484 6.47726ZM5.67442 10.137C5.65554 10.1543 5.63656 10.1698 5.61758 10.1841L6.12505 8.12874L7.04816 8.87209L5.67442 10.137ZM12.6452 1.08655L10.78 10.2966C10.762 10.3848 10.7047 10.5899 10.5572 10.5899C10.4844 10.5899 10.3929 10.5501 10.2992 10.478L7.89873 8.5452C7.89842 8.5449 7.89801 8.54459 7.8976 8.54438L6.46928 7.39422L10.5714 3.03538C10.7027 2.89584 10.7146 2.68212 10.5996 2.52883C10.4845 2.37554 10.2759 2.32732 10.1053 2.41453L3.35839 5.86134L0.964992 5.17658L12.3452 0.83241C12.4413 0.795678 12.5084 0.787983 12.5477 0.787983C12.5718 0.787983 12.6147 0.790856 12.6306 0.810453C12.6516 0.836001 12.6782 0.92311 12.6452 1.08655Z" fill="#97CBF2"/>
</svg>
