<svg width="17" height="19" viewBox="0 0 17 19" fill="none" xmlns="http://www.w3.org/2000/svg">
<g opacity="0.5">
<path d="M15.5615 10.6647C15.1009 14.5214 12.4436 14.7785 11.9476 14.9254C11.735 14.9989 9.78631 15.5131 7.34157 15.3295L4.68425 18.3782V14.8887H4.64882C1.14116 13.8602 1.28288 9.93004 1.31831 7.83638C1.35375 5.77944 1.70805 4.08982 2.80641 2.95116C4.75511 1.07788 8.75881 1.37173 8.75881 1.37173C12.1602 1.37173 13.79 2.47366 14.1443 2.84097C15.4198 3.97963 16.0576 6.69772 15.5615 10.6647ZM15.0655 1.84923C14.6049 1.40846 12.8334 0.0126876 8.82967 0.0126876C8.82967 0.0126876 4.11736 -0.28116 1.81435 1.95943C0.503403 3.31847 0.0782324 5.30194 0.00737058 7.79964C-0.0280603 10.2606 -0.098922 14.8887 4.11736 16.1376V18.0476C4.11736 18.0476 4.08193 18.8189 4.57796 18.9658C5.14485 19.1495 5.49916 18.5618 6.06606 17.9374C6.38494 17.6068 6.77468 17.0926 7.09355 16.6885C9.96346 16.9456 12.1956 16.358 12.4436 16.2845C13.0105 16.1008 16.3056 15.6601 16.8371 11.032C17.3685 6.25695 16.5536 3.24501 15.0655 1.84923Z" fill="white"/>
<path d="M12.5145 11.2523C12.5145 11.2523 11.983 10.7748 11.6996 10.5544C11.4516 10.3708 11.0618 10.1137 10.8492 9.96675C10.4595 9.74636 10.0343 9.89328 9.8926 10.1137L9.53829 10.5912C9.36114 10.8116 9.07769 10.7748 9.00683 10.7748C8.51079 10.6279 7.9439 10.2973 7.377 9.74636C6.81011 9.1954 6.4558 8.6077 6.34951 7.98328V7.94654C6.31408 7.68943 6.34951 7.57924 6.4558 7.39558H6.49123C6.73925 7.1752 7.16442 6.88135 7.23528 6.62423C7.41243 6.18346 6.66838 5.22846 6.56209 5.0448C6.56209 5.0448 6.03063 4.31018 5.81804 4.16326C5.60546 3.97961 5.28658 3.86941 4.9677 4.0898C4.0465 4.75095 3.69219 5.11826 3.79848 5.66923L3.83391 5.88961C4.29451 7.43231 5.21572 9.0852 6.56209 10.5177C7.90847 11.9502 9.36114 12.8318 10.7784 13.4195C11.1327 13.5296 11.5224 13.4195 11.9476 13.0889C12.2665 12.795 12.4791 12.4644 12.6562 12.1339C12.8334 11.8033 12.7625 11.4727 12.5145 11.2523Z" fill="white"/>
<path d="M10.2823 7.87313C10.2115 7.87313 10.1761 7.8364 10.1761 7.76294C10.1406 7.3589 10.0698 7.06505 9.85718 6.84467C9.68002 6.62428 9.39658 6.51409 9.04227 6.51409C8.9714 6.51409 8.93597 6.44062 8.93597 6.40389C8.93597 6.33043 9.00684 6.2937 9.04227 6.2937C9.46744 6.33043 9.78632 6.44063 9.9989 6.69774C10.2115 6.95486 10.3532 7.28544 10.3532 7.76294C10.3886 7.8364 10.3532 7.87313 10.2823 7.87313Z" fill="white"/>
<path d="M11.3453 8.24043C11.2744 8.24043 11.239 8.2037 11.239 8.13023C11.239 7.35889 11.0264 6.73446 10.6012 6.22023C10.3886 5.96311 10.1052 5.77946 9.82175 5.63253C9.50287 5.48561 9.14856 5.41215 8.75882 5.37542C8.68796 5.37542 8.65253 5.30195 8.65253 5.26522C8.65253 5.19176 8.72339 5.15503 8.75882 5.15503C9.60916 5.22849 10.2823 5.52234 10.7784 6.0733C11.2744 6.62427 11.487 7.32215 11.487 8.16697C11.4516 8.2037 11.4161 8.24043 11.3453 8.24043Z" fill="white"/>
<path d="M12.4436 8.71803C12.3728 8.71803 12.3373 8.68129 12.3373 8.60783C12.3373 7.94668 12.231 7.32225 12.0539 6.77129C11.8767 6.25705 11.5933 5.77955 11.2036 5.37551C10.8138 4.97147 10.3886 4.67762 9.92804 4.49397C9.46744 4.31031 8.93597 4.20012 8.36908 4.20012C8.29822 4.20012 8.26279 4.16339 8.26279 4.08993C8.26279 4.01647 8.29822 3.97974 8.36908 3.97974C9.5383 3.97974 10.5304 4.42051 11.3098 5.22859C11.6996 5.63263 12.0185 6.14686 12.1956 6.69782C12.4082 7.24879 12.5145 7.90994 12.5145 8.60783C12.5499 8.64456 12.4791 8.71803 12.4436 8.71803Z" fill="white"/>
</g>
</svg>
